<svg xmlns="http://www.w3.org/2000/svg" xmlns:svg="http://www.w3.org/2000/svg" id="svg2" width="48" height="48" version="1.1" viewBox="0 0 48 48"><metadata id="metadata12"/><path id="path4" fill="none" d="M0 0h48v48h-48z"/><path id="path6" d="m 24,12 c 3.315,0 6,-2.685 6,-6 0,-3.315 -2.685,-6 -6,-6 -3.315,0 -6,2.685 -6,6 0,3.315 2.685,6 6,6 z m 0,6 c -3.315,0 -6,2.685 -6,6 0,3.315 2.685,6 6,6 3.315,0 6,-2.685 6,-6 0,-3.315 -2.685,-6 -6,-6 z m 0,18 c -3.315,0 -6,2.685 -6,6 0,3.315 2.685,6 6,6 3.315,0 6,-2.685 6,-6 0,-3.315 -2.685,-6 -6,-6 z"/></svg>