<svg xmlns="http://www.w3.org/2000/svg" xmlns:svg="http://www.w3.org/2000/svg" id="Слой_1" width="32" height="32" enable-background="new 0 0 32 32" version="1.1" viewBox="0 0 32 32" xml:space="preserve"><metadata id="metadata20"/><path id="Close" d="M 18.328927,16.022373 31.480421,2.928013 c 0.630518,-0.6248346 0.630518,-1.6363954 0,-2.25963199 -0.628922,-0.6248345 -1.650521,-0.6248345 -2.279443,0 L 16.060657,13.751554 2.7990221,0.47341991 c -0.628922,-0.6312268 -1.6505213,-0.6312268 -2.27944329,0 -0.628922,0.63282479 -0.628922,1.65716989 0,2.28839669 L 13.771637,16.030363 0.47169131,29.271742 c -0.628922,0.624835 -0.628922,1.636396 0,2.259632 0.62892209,0.624835 1.65052129,0.624835 2.27944329,0 L 16.039906,18.301181 29.248865,31.52658 c 0.628922,0.631227 1.650521,0.631227 2.279443,0 0.628923,-0.632825 0.628923,-1.65717 0,-2.288397 L 18.328927,16.022373 Z" style="fill:#e5e5e5;fill-opacity:1"/></svg>