<svg xmlns="http://www.w3.org/2000/svg" xmlns:svg="http://www.w3.org/2000/svg" id="svg1336" width="90" height="90" version="1.0"><defs id="defs1338"><linearGradient id="linearGradient8721"><stop id="stop12145" offset="0" style="stop-color:red;stop-opacity:1"/><stop style="stop-color:#ffe0e0;stop-opacity:1" id="stop8725" offset="1"/></linearGradient><linearGradient id="linearGradient4073"><stop id="stop4075" offset="0" style="stop-color:#fff;stop-opacity:1"/><stop id="stop4077" offset="1" style="stop-color:#fff;stop-opacity:0"/></linearGradient><linearGradient id="linearGradient6848"><stop id="stop6850" offset="0" style="stop-color:#00f;stop-opacity:1"/><stop id="stop6852" offset="1" style="stop-color:#e0e0ff;stop-opacity:1"/></linearGradient><linearGradient id="linearGradient6854"><stop id="stop6856" offset="0" style="stop-color:#ffffe0;stop-opacity:1"/><stop id="stop6858" offset="1" style="stop-color:#ff0;stop-opacity:1"/></linearGradient></defs><metadata id="metadata1342"/><g id="layer1" transform="translate(7.600007,-268.296)"><g id="g8851" transform="matrix(0.89780653,0,0,0.89780653,3.3255218,31.227176)" style="stroke-width:1.11382568"><path style="fill:#ff8080;fill-opacity:1;fill-rule:nonzero;stroke:none;stroke-width:8.1671648;marker-start:none" id="rect1393" d="M 1.7177382,306.59902 H 22.600591 c 4.60803,0 8.317742,3.92514 8.317742,8.80075 v 22.09548 c 0,4.87561 -3.709712,8.80074 -8.317742,8.80074 H 1.7177382 c -4.6080295,0 -8.3177447,-3.92513 -8.3177447,-8.80074 v -22.09548 c 0,-4.87561 3.7097152,-8.80075 8.3177447,-8.80075 z"/><path id="path41636" d="M 26.128763,282.05503 H 46.98748 c 3.963467,0 7.127903,3.35018 7.127903,7.54361 v 22.09539 c 0,4.19498 -3.163826,7.53995 -7.127903,7.53995 H 26.104712 c -3.964094,0 -7.127903,-3.34654 -7.127903,-7.53995 v -22.10296 c 0,-4.19437 3.187278,-7.53604 7.151954,-7.53604 z" style="display:inline;fill:#59f;fill-opacity:1;stroke:none;stroke-width:2.72654319;stroke-linecap:butt;stroke-linejoin:round;stroke-miterlimit:20;stroke-dasharray:none;stroke-dashoffset:0;stroke-opacity:.50196078;marker-start:none"/><path style="display:inline;fill:#ffe680;fill-opacity:1;fill-rule:nonzero;stroke:none;stroke-width:8.22765446;marker-start:none" id="path5936" d="m 53.305456,299.65205 h 20.882852 c 4.608031,0 8.317743,3.92514 8.317743,8.80075 v 22.09548 c 0,4.87561 -3.709712,8.80074 -8.317743,8.80074 H 53.305456 c -4.608031,0 -8.317745,-3.92513 -8.317745,-8.80074 V 308.4528 c 0,-4.87561 3.709714,-8.80075 8.317745,-8.80075 z"/></g></g></svg>