<svg xmlns="http://www.w3.org/2000/svg" xmlns:svg="http://www.w3.org/2000/svg" id="Layer_1" version="1.1" viewBox="0 0 512 512" xml:space="preserve" style="enable-background:new 0 0 512 512"><metadata id="metadata21"/><style id="style3" type="text/css">.st0{fill:#474b4f}.st1{fill:#ffde40}.st2{fill:#ef5ba1}.st3{fill:#00bff3}.st4{fill:#fff}</style><g id="g5" transform="matrix(1.222043,0,0,1.222043,-56.880104,-57.196178)"><path id="path7" d="m 416.8,193.2 c 0,0 -5.1,-14.3 -19.4,-9.3 l -241.9,85.6 c 0,0 -14.3,5.1 -9.3,19.4 l 45.2,127.7 c 0,0 5.1,14.3 19.4,9.3 l 241.9,-85.6 c 0,0 14.3,-5.1 9.3,-19.4 l -45.2,-127.7 0,0 z" class="st0" style="fill:#474b4f"/><path id="path9" d="m 336.6,122.6 c 0,0 -9.8,-11.6 -21.4,-1.9 l -208.4,175 c 0,0 -11.6,9.8 -1.9,21.4 L 192,420.9 c 0,0 9.8,11.6 21.4,1.9 L 421.9,247.9 c 0,0 11.6,-9.8 1.9,-21.4 l -87.2,-103.9 0,0 z" class="st1" style="fill:#ffde40"/><path id="path11" d="m 231.5,78.1 c 0,0 -13.2,-7.5 -20.7,5.7 L 69.5,333.7 c 0,0 -7.5,13.2 5.7,20.7 l 117.9,66.7 c 0,0 13.2,7.5 20.7,-5.7 L 355.1,165.6 c 0,0 7.5,-13.2 -5.7,-20.7 l -117.9,-66.8 0,0 z" class="st2" style="fill:#ef5ba1"/><path id="path13" d="m 64.2,85.3 c 0,0 -15.2,0 -15.2,15.2 l 0,320.9 c 0,0 0,15.2 15.2,15.2 l 135.5,0 c 0,0 15.2,0 15.2,-15.2 l 0,-320.9 c 0,0 0,-15.2 -15.2,-15.2 l -135.5,0 0,0 z" class="st3" style="fill:#00bff3"/><path id="path15" d="m 183.4,418.4 c 5.6,0 10.1,-4.5 10.1,-10.1 0,-5.6 -4.5,-10.1 -10.1,-10.1 -5.6,0 -10.1,4.5 -10.1,10.1 -0.1,5.6 4.5,10.1 10.1,10.1 l 0,0 z" class="st4" style="fill:#fff"/></g></svg>