<svg xmlns="http://www.w3.org/2000/svg" xmlns:svg="http://www.w3.org/2000/svg" id="svg2" width="512" height="512" version="1.1"><metadata id="metadata17"/><g id="g4305" transform="matrix(1.1629723,0,0,1.1629723,-41.720909,-670.14716)" style="fill:#474747;fill-opacity:1"><g id="g4345" transform="translate(28,-40.00001)" style="fill:#474747;fill-opacity:1"><g style="font-style:normal;font-variant:normal;font-weight:400;font-stretch:normal;font-size:550px;line-height:125%;font-family:Ubuntu;-inkscape-font-specification:Ubuntu;text-align:start;letter-spacing:0;word-spacing:0;writing-mode:lr-tb;text-anchor:start;fill:#474747;fill-opacity:1;stroke:none" id="text2994"><g style="font-style:normal;font-variant:normal;font-weight:400;font-stretch:normal;font-size:550px;line-height:125%;font-family:Ubuntu;-inkscape-font-specification:Ubuntu;text-align:start;letter-spacing:0;word-spacing:0;writing-mode:lr-tb;text-anchor:start;fill:#474747;fill-opacity:1;stroke:none" id="layer1-1-1" transform="matrix(0.8,0,0,0.8,120.63721,336.56725)"><g id="g3989" transform="translate(94.875498,-44.842982)" style="fill:#474747;fill-opacity:1"><g style="font-style:normal;font-variant:normal;font-weight:400;font-stretch:normal;font-size:550px;line-height:125%;font-family:Ubuntu;-inkscape-font-specification:Ubuntu;text-align:start;letter-spacing:0;word-spacing:0;writing-mode:lr-tb;text-anchor:start;fill:#474747;fill-opacity:1;stroke:none" id="layer1-1-7" transform="translate(-266.66383,-76.760125)"><path style="color:#000;font-style:normal;font-variant:normal;font-weight:400;font-stretch:normal;font-size:medium;line-height:normal;font-family:Sans;-inkscape-font-specification:Sans;text-indent:0;text-align:start;text-decoration:none;text-decoration-line:none;letter-spacing:normal;word-spacing:normal;text-transform:none;writing-mode:lr-tb;direction:ltr;baseline-shift:baseline;text-anchor:start;display:inline;overflow:visible;visibility:visible;fill:#474747;fill-opacity:1;fill-rule:nonzero;stroke:none;stroke-width:40;marker:none;enable-background:accumulate" id="path3833-1" d="m 280.55482,571.22252 a 20.002,20.002 0 0 0 -2.78125,0.28125 H 100.86732 a 20.002,20.002 0 0 0 -20.000003,20 v 410.00003 a 20.002,20.002 0 0 0 20.000003,20 h 310 a 20.002,20.002 0 0 0 20,-20 V 724.75377 a 20.002,20.002 0 0 0 -7.53125,-19.09375 L 296.61732,578.94127 a 20.002,20.002 0 0 0 -16.0625,-7.71875 z m -159.6875,40.28125 h 140 v 106.78125 a 20.002,20.002 0 0 0 5.75,17.53125 20.002,20.002 0 0 0 0.15625,0.15625 20.002,20.002 0 0 0 0.28125,0.25 20.002,20.002 0 0 0 17.09375,5.28125 h 106.71875 v 240 h -270 z m 180,28.28125 61.71875,61.71875 h -61.71875 z"/></g><path style="color:#000;font-style:normal;font-variant:normal;font-weight:400;font-stretch:normal;font-size:medium;line-height:normal;font-family:Sans;-inkscape-font-specification:Sans;text-indent:0;text-align:start;text-decoration:none;text-decoration-line:none;letter-spacing:normal;word-spacing:normal;text-transform:none;writing-mode:lr-tb;direction:ltr;baseline-shift:baseline;text-anchor:start;display:inline;overflow:visible;visibility:visible;fill:#474747;fill-opacity:1;fill-rule:nonzero;stroke:none;stroke-width:40;marker:none;enable-background:accumulate" id="path3833-4" d="m 113.89099,394.43117 c -0.93025,0.0394 -1.85774,0.14395 -2.77344,0.3125 H -65.796509 c -5.235845,5.2e-4 -10.439249,2.15615 -14.14155,5.85845 -3.702301,3.7023 -5.857926,8.90571 -5.85845,14.14155 v 55 h 40 v -35 h 140 v 81.67969 l 48.320309,48.32031 h 81.67969 v 240 h -35 v 40 h 55 c 5.23584,-5.2e-4 10.43925,-2.15615 14.14155,-5.85845 3.7023,-3.7023 5.85793,-8.90571 5.85845,-14.14155 V 547.98586 c 1.1676,-7.09283 -1.84196,-14.71812 -7.53906,-19.10157 L 129.94568,402.16554 c -3.77547,-4.86309 -9.89858,-7.81291 -16.05469,-7.73437 z m 20.3125,68.59375 61.71875,61.71875 h -61.71875 z"/></g></g></g></g></g></svg>