<svg xmlns="http://www.w3.org/2000/svg" xmlns:svg="http://www.w3.org/2000/svg" id="svg3745" width="24" height="24" version="1.1"><metadata id="metadata9"/><path style="opacity:.9;fill:#474747;fill-opacity:1;stroke:#474747;stroke-width:1.17565155;stroke-opacity:1" id="path3765" d="m 11.196925,19.45351 c -1.8439299,1.829004 -4.8214305,1.816904 -6.6504345,-0.02703 -1.829004,-1.84393 -1.8169045,-4.82143 0.027025,-6.650434 0.069891,-0.06933 0.1419406,-0.136438 0.2160438,-0.201241 l 3.0956609,3.53997 z m -5.6630079,0.188225 -1.1756515,-1.175652 -3.5269545,3.526955 1.1756515,1.175651 z"/><path style="opacity:.9;fill:#474747;fill-opacity:1;stroke:#474747;stroke-width:1.17565155;stroke-opacity:1" id="path3767" d="m 12.803076,4.5464907 c 1.84393,-1.8290045 4.82143,-1.8169047 6.650434,0.027025 1.829004,1.8439295 1.816905,4.8214303 -0.02703,6.6504333 -0.06989,0.06933 -0.14194,0.136438 -0.216044,0.201241 L 16.114781,7.8852199 Z M 23.16869,2.0069624 21.993038,0.8313109 18.466084,4.3582654 19.641735,5.5339169 Z"/></svg>