<svg xmlns="http://www.w3.org/2000/svg" xmlns:svg="http://www.w3.org/2000/svg" id="svg2" width="32" height="32" version="1.1" viewBox="0 0 32 32" xml:space="preserve"><metadata id="metadata12"/><g id="cloud" transform="translate(0,6)" style="fill:#dd4814;fill-opacity:1;stroke:none;stroke-opacity:1"><path style="fill:#dd4814;fill-opacity:1;stroke:none;stroke-opacity:1" id="path6" d="M 24,4 C 23.621,4 23.262,4.061 22.898,4.111 21.504,1.646 18.926,0 16,0 13.012,0 10.434,1.666 9.059,4.1 8.707,4.053 8.355,4 8,4 3.59,4 0,7.588 0,12 c 0,4.414 3.59,8 8,8 l 16,0 c 4.41,0 8,-3.586 8,-8 C 32,7.588 28.41,4 24,4 Z M 24,16 8,16 C 5.793,16 4,14.205 4,12 4,9.807 5.941,8.115 8.004,8.055 c 0.008,0.943 0.172,1.869 0.5,2.744 L 12.25,9.397 C 12.082,8.953 12,8.482 12,8 12,5.795 13.793,4 16,4 17.293,4 18.465,4.641 19.199,5.639 17.27,7.1 16,9.395 16,12 l 4,0 c 0,-2.205 1.793,-4 4,-4 2.207,0 4,1.795 4,4 0,2.205 -1.793,4 -4,4 z"/></g></svg>