<svg xmlns="http://www.w3.org/2000/svg" xmlns:svg="http://www.w3.org/2000/svg" id="Layer_1" width="24" height="24" enable-background="new 0 0 24 24" version="1.1" viewBox="0 0 24 24" xml:space="preserve"><metadata id="metadata13"/><path id="path2" d="M 12,0 C 5.4,0 0,5.4 0,12 0,18.6 5.4,24 12,24 18.6,24 24,18.6 24,12 24,5.4 18.6,0 12,0 Z m 0,22 C 6.5,22 2,17.5 2,12 2,6.5 6.5,2 12,2 c 5.5,0 10,4.5 10,10 0,5.5 -4.5,10 -10,10 z" style="fill:#474747;fill-opacity:1;stroke:none;stroke-width:1;stroke-miterlimit:4;stroke-dasharray:none;stroke-opacity:1"/><path id="path4" d="m 15.84,9.12 c 0,-0.576 -0.384,-0.96 -0.96,-0.96 H 9.12 c -0.576,0 -0.96,0.384 -0.96,0.96 v 5.76 c 0,0.576 0.384,0.96 0.96,0.96 h 5.76 c 0.576,0 0.96,-0.384 0.96,-0.96 z m -0.96,5.76 H 9.12 V 9.12 h 5.76 z" style="fill:none;fill-opacity:1;stroke:#474747;stroke-width:.95999998;stroke-linecap:butt;stroke-linejoin:miter;stroke-opacity:1"/><rect style="fill:#474747;fill-opacity:1;stroke:#474747;stroke-width:1;stroke-linecap:butt;stroke-linejoin:miter;stroke-miterlimit:4;stroke-dasharray:none;stroke-opacity:1" id="rect824" width="5.76" height="5.76" x="9.12" y="9.12"/></svg>