<svg xmlns="http://www.w3.org/2000/svg" xmlns:svg="http://www.w3.org/2000/svg" id="svg6" width="48" height="48" version="1.1" viewBox="0 0 48 48"><metadata id="metadata12"/><path id="path2" fill="none" d="M0 0h48v48h-48z"/><path id="path4" d="m 19.210978,5.4888508 c 3.787307,0 7.217838,1.5368782 9.701543,4.0205832 l -6.957118,6.957118 H 38.421955 V 0 L 32.795883,5.626072 C 29.324185,2.1543739 24.521441,0 19.210978,0 9.536878,0 1.5506003,7.1629503 0.219554,16.466552 H 5.763293 C 7.039451,10.209262 12.569468,5.4888508 19.210978,5.4888508 Z M 34.689537,30.559177 c 1.825043,-2.483705 3.060034,-5.42024 3.512864,-8.603774 h -5.543739 c -1.276158,6.25729 -6.806175,10.977702 -13.447684,10.977702 -3.787307,0 -7.217839,-1.536879 -9.701544,-4.020584 l 6.957118,-6.957118 H 0 v 16.466552 l 5.626072,-5.626072 c 3.471698,3.471698 8.274443,5.626072 13.584906,5.626072 4.253859,0 8.178387,-1.399657 11.361921,-3.74614 L 43.910806,48 48,43.910806 Z" style="stroke-width:1.37221265;fill:#474747;fill-opacity:1"/></svg>