<svg xmlns="http://www.w3.org/2000/svg" xmlns:osb="http://www.openswatchbook.org/uri/2009/osb" xmlns:svg="http://www.w3.org/2000/svg" id="Layer_1" width="50" height="50" enable-background="new 0 0 50 50" version="1.1" viewBox="0 0 50 50" xml:space="preserve"><metadata id="metadata13"/><defs id="defs11"><linearGradient id="linearGradient828" osb:paint="solid"><stop style="stop-color:#2271a6;stop-opacity:1" id="stop826" offset="0"/></linearGradient></defs><g id="g826" style="stroke:#999;stroke-opacity:1;fill:#999;fill-opacity:1"><path style="fill:#999;fill-opacity:1;stroke:#999;stroke-width:3.84600019;stroke-linecap:round;stroke-miterlimit:4;stroke-dasharray:none;stroke-opacity:1" id="path4" stroke-miterlimit="10" d="m 45.192802,14.904885 v -3.845758 c 0,-1.0614296 -0.861449,-1.9228794 -1.922879,-1.9228794 0,0 -23.697561,0 -24.997428,0 -1.412354,0 -2.388216,-3.8457582 -3.845758,-3.8457582 H 3.8509022 c -1.0614293,0 -1.9228791,0.8614499 -1.9228791,1.9228791 v 3.8457585 27.881746 3.845758 c 0,1.06143 0.8614498,1.92288 1.9228791,1.92288 H 41.347044 c 1.061429,0 1.922879,-0.86145 1.922879,-1.92288"/><path style="fill:#999;fill-opacity:1;stroke:#999;stroke-width:3.84600019;stroke-linecap:round;stroke-miterlimit:4;stroke-dasharray:none;stroke-opacity:1" id="path6" stroke-miterlimit="10" d="M 1.9280231,42.786631 6.7352208,16.827764 c 0,-1.061429 0.8614498,-1.922879 1.9228791,-1.922879 H 46.154242 c 1.061429,0 1.922879,0.86145 1.922879,1.922879 l -4.807198,25.958867"/></g></svg>