<svg xmlns="http://www.w3.org/2000/svg" xmlns:svg="http://www.w3.org/2000/svg" id="svg8" width="64" height="64" version="1.1" viewBox="0 0 16.933 16.933"><metadata id="metadata5"/><g id="layer1" transform="translate(0,-280.06665)"><circle style="opacity:1;fill:#dfd4dc;fill-opacity:1;fill-rule:evenodd;stroke:none;stroke-width:.58796299;stroke-linecap:round;stroke-linejoin:round;stroke-miterlimit:4;stroke-dasharray:none;stroke-opacity:1" id="path819-0" cx="8.467" cy="288.533" r="7.938"/><g id="g2023" transform="matrix(0.30248175,0,0,0.30613262,2.8248188,-28.36885)" style="fill:#5e2750;stroke:#5e2750;stroke-width:.86947703"><path id="path1999" d="m 25.555161,1028.9567 a 6.2225399,6.2225399 0 0 0 -6.222656,6.2227 6.2225399,6.2225399 0 0 0 6.222656,6.2226 6.2225399,6.2225399 0 0 0 6.222656,-6.2226 6.2225399,6.2225399 0 0 0 -6.222656,-6.2227 z m 0,2.1211 a 4.1012199,4.1012187 0 0 1 4.101562,4.1016 4.1012199,4.1012187 0 0 1 -4.101562,4.1015 4.1012199,4.1012187 0 0 1 -4.101563,-4.1015 4.1012199,4.1012187 0 0 1 4.101563,-4.1016 z" style="opacity:1;fill:#5e2750;fill-opacity:1;fill-rule:evenodd;stroke:#5e2750;stroke-width:1.73895407;stroke-linecap:round;stroke-linejoin:round;stroke-miterlimit:4;stroke-dasharray:none;stroke-opacity:1"/><rect id="rect2003" width="4.525" height="5.91" x="5.091" y="1033.674" rx="0" ry="0" style="opacity:1;fill:#5e2750;fill-opacity:1;fill-rule:evenodd;stroke:#5e2750;stroke-width:.86947703;stroke-linecap:round;stroke-linejoin:round;stroke-miterlimit:4;stroke-dasharray:none;stroke-opacity:1"/><rect style="opacity:1;fill:#5e2750;fill-opacity:1;fill-rule:evenodd;stroke:#5e2750;stroke-width:.86947703;stroke-linecap:round;stroke-linejoin:round;stroke-miterlimit:4;stroke-dasharray:none;stroke-opacity:1" id="rect2018" width="1.98" height="12.769" x="-1035.654" y="7.637" rx="0" ry="0" transform="rotate(-90)"/></g></g></svg>