<svg xmlns="http://www.w3.org/2000/svg" xmlns:svg="http://www.w3.org/2000/svg" id="Layer_1" width="32" height="32" enable-background="new 0 0 128 128" version="1.1" viewBox="0 0 32 32" xml:space="preserve"><metadata id="metadata17"/><g id="g823" transform="translate(0,3)"><rect style="fill:#909b9e;fill-opacity:1;stroke-width:.25" id="rect4" width="16" height="2" x="8" y="6"/><rect style="fill:#909b9e;fill-opacity:1;stroke-width:.25" id="rect6" width="16" height="2" x="8" y="10"/><rect style="fill:#909b9e;fill-opacity:1;stroke-width:.25" id="rect8" width="16" height="2" x="8" y="14"/><rect style="fill:#909b9e;fill-opacity:1;stroke-width:.25" id="rect10" width="8" height="2" x="8" y="18"/></g><path id="path8" d="m 11.104568,27.043297 a 1.2342553,1.2736996 50.396727 0 0 1.76816,0.139023 l 5.397453,-4.465681 c 1.339553,-1.108307 2.462343,-1.020025 3.536313,0.278038 l 4.75226,5.743826 -1.27748,-0.544992 -2.27207,-0.178642 a 1.234943,1.2744094 50.396727 0 0 -0.27531,2.494511 l 6.18855,0.486582 a 1.2342553,1.2736996 50.396727 0 0 1.38862,-1.148899 l 0.68095,-6.170183 a 1.2349413,1.2744094 50.396727 0 0 -2.50194,-0.196712 l -0.21357,2.339323 0.2725,1.328409 -4.7798,-5.777109 c -1.93946,-2.344134 -4.653572,-2.557521 -7.072618,-0.556079 l -5.397453,4.465681 a 1.2342553,1.2736996 50.396727 0 0 -0.194565,1.762904 z" class="cls-1" style="fill:#59f;fill-opacity:1;stroke:#59f;stroke-width:2;stroke-miterlimit:4;stroke-dasharray:none;stroke-opacity:1"/></svg>