<svg xmlns="http://www.w3.org/2000/svg" xmlns:svg="http://www.w3.org/2000/svg" id="Слой_1" width="50" height="50" version="1.1" viewBox="0 0 50 50" xml:space="preserve" style="enable-background:new 0 0 50 50"><metadata id="metadata17"/><style id="style3" type="text/css">.st0{fill:#374163}</style><g id="g5"><path id="path7" d="M14.50651,49.94455H2.30159c-1.2725,0-2.30156-1.03091-2.30156-2.30156V35.54503 c0-0.61043,0.24343-1.19689,0.67498-1.62843L33.86693,0.72836c0.89628-0.89075,2.34951-0.90181,3.24579-0.00553l12.20492,12.09796 C49.75288,13.25049,50,13.83694,50,14.44922c0,0.61227-0.23975,1.20057-0.67498,1.63396L16.13309,49.27142 C15.70155,49.70296,15.1151,49.94455,14.50651,49.94455z M4.60315,45.34143h8.95175l30.8793-30.8793l-8.93331-8.8577 L4.60315,36.49849V45.34143z" class="st0"/><path id="path9" d="M14.50651,49.94455c-0.58646,0-1.17291-0.22131-1.61921-0.6676L0.68238,37.17899 c-0.90366-0.89444-0.91104-2.35136-0.01475-3.25501c0.89259-0.90181,2.3532-0.91472,3.25317-0.01291l12.20492,12.09796 c0.90366,0.89444,0.91104,2.35136,0.01476,3.25501C15.69049,49.71772,15.10034,49.94455,14.50651,49.94455z" class="st0"/><path id="path11" d="M39.88271,24.57204c-0.59383,0-1.18398-0.22684-1.63396-0.68051L26.15079,11.68661 c-0.89628-0.90366-0.88891-2.36058,0.01475-3.25501c0.89628-0.89997,2.36058-0.8889,3.25317,0.01291l12.09796,12.20492 c0.89628,0.90366,0.88891,2.36058-0.01475,3.25501C41.05563,24.35073,40.46917,24.57204,39.88271,24.57204z" class="st0"/></g></svg>