<svg xmlns="http://www.w3.org/2000/svg" xmlns:svg="http://www.w3.org/2000/svg" id="svg2" width="128" height="128" version="1.0"><metadata id="metadata7"/><defs id="defs5"><pattern id="pattern3185" width="11.504" height="11.844" patternTransform="translate(15.738646,78.530933)" patternUnits="userSpaceOnUse"><g id="g3181" transform="translate(-15.738646,-78.530933)"><rect id="rect3047" width="5.434" height="5.434" x="-47.118" y="68.1" ry="2.182" transform="matrix(0.7071068,-0.7071068,0.7071068,0.7071068,0,0)" style="fill:gray;fill-opacity:1;fill-rule:evenodd;stroke:#000;stroke-width:0;stroke-linecap:round;stroke-linejoin:round;marker:none;marker-start:none;marker-mid:none;marker-end:none;stroke-miterlimit:4;stroke-dasharray:none;stroke-dashoffset:0;stroke-opacity:1;visibility:visible;display:inline;overflow:visible;enable-background:accumulate"/><rect style="fill:gray;fill-opacity:1;fill-rule:evenodd;stroke:#000;stroke-width:0;stroke-linecap:round;stroke-linejoin:round;marker:none;marker-start:none;marker-mid:none;marker-end:none;stroke-miterlimit:4;stroke-dasharray:none;stroke-dashoffset:0;stroke-opacity:1;visibility:visible;display:inline;overflow:visible;enable-background:accumulate" id="rect3087" width="5.434" height="5.434" x="-47.358" y="76.292" ry="2.182" transform="matrix(0.7071068,-0.7071068,0.7071068,0.7071068,0,0)"/></g></pattern><pattern id="pattern3217" width="7.321" height="7.321" patternTransform="translate(2.8868,82.830071)" patternUnits="userSpaceOnUse"><g id="g3213" transform="matrix(0.5590771,0,0,0.5590771,-1.6139438,-46.308397)"><path style="opacity:1;fill:#b3b3b3;fill-opacity:1;fill-rule:evenodd;stroke:#000;stroke-width:0;stroke-linecap:round;stroke-linejoin:round;marker:none;marker-start:none;marker-mid:none;marker-end:none;stroke-miterlimit:4;stroke-dasharray:none;stroke-dashoffset:0;stroke-opacity:1;visibility:visible;display:inline;overflow:visible;enable-background:accumulate" id="path3209" d="M 9.3396471,86.056496 A 3.2264235,3.2264235 0 0 1 6.1132236,89.282919 3.2264235,3.2264235 0 0 1 2.8868001,86.056496 3.2264235,3.2264235 0 0 1 6.1132236,82.830072 3.2264235,3.2264235 0 0 1 9.3396471,86.056496 Z"/><path id="path3211" d="M 9.3396471,86.056496 A 3.2264235,3.2264235 0 0 1 6.1132236,89.282919 3.2264235,3.2264235 0 0 1 2.8868001,86.056496 3.2264235,3.2264235 0 0 1 6.1132236,82.830072 3.2264235,3.2264235 0 0 1 9.3396471,86.056496 Z" transform="translate(6.6415059,6.6415059)" style="opacity:1;fill:#b3b3b3;fill-opacity:1;fill-rule:evenodd;stroke:#000;stroke-width:0;stroke-linecap:round;stroke-linejoin:round;marker:none;marker-start:none;marker-mid:none;marker-end:none;stroke-miterlimit:4;stroke-dasharray:none;stroke-dashoffset:0;stroke-opacity:1;visibility:visible;display:inline;overflow:visible;enable-background:accumulate"/></g></pattern></defs><g id="layer1"><g id="g1562" transform="matrix(1.1108981,0,0,1.1108981,-10.627817,-8.7735865)"><path style="display:inline;overflow:visible;visibility:visible;fill:#267cb5;fill-opacity:1;fill-rule:evenodd;stroke:#000;stroke-width:4;stroke-linecap:round;stroke-linejoin:round;stroke-miterlimit:4;stroke-dashoffset:0;stroke-opacity:1;marker:none;marker-start:none;marker-mid:none;marker-end:none;enable-background:accumulate" id="path3254" d="m 50.562956,114.61666 c -9.626076,9.83887 -23.107501,4.75908 -28.712471,-1.05781 -5.795899,-6.01504 -9.202044,-20.52528 -0.664964,-28.319622 L 88.940409,17.484341 c 9.58974,-9.5361131 22.593451,-2.922592 27.123651,1.591684 5.91786,5.897066 10.50607,18.527898 2.25378,27.785751 z"/><path id="rect3026" d="M 17.114887,48.893827 C 7.2760171,39.267751 12.35581,25.786326 18.172699,20.181356 24.187736,14.385457 38.69798,10.979312 46.492322,19.516392 l 67.754888,67.754887 c 9.53611,9.58974 2.92259,22.593451 -1.59169,27.123661 -5.89706,5.91785 -18.527893,10.50606 -27.785746,2.25377 z" style="display:inline;overflow:visible;visibility:visible;fill:#267cb5;fill-opacity:1;fill-rule:evenodd;stroke:#000;stroke-width:4;stroke-linecap:round;stroke-linejoin:round;stroke-miterlimit:4;stroke-dashoffset:0;stroke-opacity:1;marker:none;marker-start:none;marker-mid:none;marker-end:none;enable-background:accumulate"/></g></g></svg>