<svg xmlns="http://www.w3.org/2000/svg" xmlns:svg="http://www.w3.org/2000/svg" id="Lager_1" version="1.1" viewBox="0 0 128 128" xml:space="preserve" style="enable-background:new 0 0 128 128"><metadata id="metadata26"/><g id="g3" transform="matrix(1.2657626,0,0,1.2657627,-17.110508,-16.195254)"><g id="g5"><g id="g7"><circle style="fill:#36447f" id="circle9" cx="64" cy="64" r="50"/></g></g><g id="Layer_2_1_"><g id="g12"><g id="g14"><path style="fill:#c9d5f7" id="path16" d="m 41.7,56.7 c 2.3,0 3.8,0.4 4.6,1.3 0.8,0.8 0.9,2.3 0.5,4.3 -0.4,2.1 -1.2,3.7 -2.4,4.6 -1.2,0.9 -3,1.4 -5.4,1.4 l -3.7,0 2.2,-11.6 c 0,0 4.2,0 4.2,0 z M 27,80 l 6,0 1.4,-7.4 5.2,0 c 2.3,0 4.1,-0.2 5.6,-0.7 1.5,-0.5 2.8,-1.3 4,-2.4 1,-0.9 1.8,-2 2.5,-3.1 C 52.3,65.3 52.8,64 53,62.7 53.6,59.4 53.2,56.9 51.6,55 50,53.2 47.5,52.3 44,52.3 L 32.4,52.3 27,80 Z"/><path style="fill:#c9d5f7" id="path18" d="m 59.1,45 6,0 -1.4,7.4 5.3,0 c 3.3,0 5.7,0.6 6.9,1.8 1.3,1.2 1.7,3.1 1.1,5.7 l -2.5,12.9 -6.1,0 2.4,-12.2 C 71.1,59.2 71,58.3 70.5,57.8 70,57.3 69,57 67.5,57 l -4.8,0 -3.1,15.8 -6,0 5.5,-27.8 z"/><path style="fill:#c9d5f7" id="path20" d="m 90.4,56.7 c 2.3,0 3.8,0.4 4.6,1.3 0.8,0.8 0.9,2.3 0.5,4.3 -0.4,2.1 -1.2,3.7 -2.4,4.6 -1.2,0.9 -3,1.4 -5.4,1.4 l -3.7,0 2.2,-11.6 c 0,0 4.2,0 4.2,0 z M 75.7,80 l 6,0 1.4,-7.4 5.2,0 c 2.3,0 4.1,-0.2 5.6,-0.7 1.5,-0.5 2.8,-1.3 4,-2.4 1,-0.9 1.8,-2 2.5,-3.1 0.6,-1.1 1.1,-2.4 1.3,-3.7 0.6,-3.3 0.2,-5.8 -1.4,-7.7 -1.6,-1.8 -4.1,-2.7 -7.6,-2.7 l -11.6,0 -5.4,27.7 z"/></g></g></g></g></svg>