<svg xmlns="http://www.w3.org/2000/svg" xmlns:svg="http://www.w3.org/2000/svg" id="Layer_1" width="256" height="256" enable-background="new 0 0 256 256" version="1.1" viewBox="0 0 256 256" xml:space="preserve"><metadata id="metadata9"/><path id="path2" d="M 244.69516,119.24786 H 136.75214 V 11.304843 c 0,-5.1550086 -3.59713,-9.3356126 -8.75214,-9.3356126 -5.15501,0 -8.75214,4.180604 -8.75214,9.3356126 V 119.24786 H 11.304842 c -5.1550076,0 -9.3356116,3.59713 -9.3356116,8.75214 0,5.15501 4.180604,8.75214 9.3356116,8.75214 H 119.24786 v 107.94302 c 0,5.155 3.59713,9.33561 8.75214,9.33561 5.15501,0 8.75214,-4.18061 8.75214,-9.33561 V 136.75214 h 107.94302 c 5.155,0 9.33561,-3.59713 9.33561,-8.75214 0,-5.15501 -4.18061,-8.75214 -9.33561,-8.75214 z" style="fill:#474747;stroke:#474747;stroke-width:3.93846154;stroke-miterlimit:4;stroke-dasharray:none;stroke-opacity:1;fill-opacity:1"/></svg>