<svg xmlns="http://www.w3.org/2000/svg" xmlns:svg="http://www.w3.org/2000/svg" id="svg2" width="1024" height="1024" version="1.1"><metadata id="metadata10"/><path id="path4" d="M 853.33334,955.73333 C 947.54134,955.73333 1024,894.5664 1024,819.2 1024,768.83307 989.4587,725.2672 938.66666,701.56693 V 254.13333 C 989.4587,230.46613 1024,186.93333 1024,136.53333 1024,61.2 947.54134,0 853.33334,0 c -94.208,0 -170.66668,61.2 -170.66668,136.53333 0,50.4 34.45867,93.9328 85.33334,117.6 v 447.4336 C 717.12533,725.2672 682.66666,768.83307 682.66666,819.2 c 0,75.3664 76.45868,136.53333 170.66668,136.53333 z m 0,-887.466663 c 47.08266,0 85.33332,30.533329 85.33332,68.266663 0,37.66614 -38.25066,68.26667 -85.33332,68.26667 C 806.12532,204.8 768,174.19947 768,136.53333 768,98.799996 806.12532,68.266667 853.33334,68.266667 z m 0,682.666663 c 47.08266,0 85.33332,30.50027 85.33332,68.26667 0,37.7664 -38.25066,68.26667 -85.33332,68.26667 C 806.12532,887.46667 768,856.9664 768,819.2 c 0,-37.7664 38.12532,-68.26667 85.33334,-68.26667 z m -768.00001,-496.8 v 428.53334 c 0,205.33334 256.00001,204.8 256.00001,204.8 h 85.33332 V 1024 l 256,-204.8 -256,-204.8 v 136.53333 c 0,0 -35.584,0 -85.33332,0 C 266.08266,750.93333 256,682.66667 256,682.66667 V 254.13333 c 50.83333,-23.6672 85.33334,-67.13386 85.33334,-117.6 C 341.33334,61.2 264.83334,0 170.66666,0 76.499999,0 0,61.2 0,136.53333 c 0,50.4 34.499999,93.9328 85.33333,117.6 z M 170.66666,68.266667 C 217.74934,68.266667 256,98.799996 256,136.53333 256,174.19947 217.74934,204.8 170.66666,204.8 123.5,204.8 85.33333,174.19947 85.33333,136.53333 c 0,-37.733334 38.16667,-68.266663 85.33333,-68.266663 z" style="fill:#474747;fill-opacity:1"/></svg>