<svg xmlns="http://www.w3.org/2000/svg" xmlns:svg="http://www.w3.org/2000/svg" xmlns:xlink="http://www.w3.org/1999/xlink" id="svg7854" width="24" height="24" version="1.0"><metadata id="metadata18"/><defs id="defs7856"><linearGradient id="linearGradient3698"><stop id="stop3700" offset="0" style="stop-color:#eeeeec;stop-opacity:1"/><stop id="stop3702" offset=".792" style="stop-color:#babdb6;stop-opacity:1"/><stop id="stop3704" offset="1" style="stop-color:#a1a59b;stop-opacity:1"/></linearGradient><linearGradient id="linearGradient4111"><stop id="stop4113" offset="0" style="stop-color:white;stop-opacity:1"/><stop id="stop4115" offset="1" style="stop-color:white;stop-opacity:0"/></linearGradient><linearGradient id="linearGradient4117" x1="22.147" x2="22.402" y1="15.722" y2="34.612" gradientTransform="matrix(0.7419493,0,0,0.7272757,-5.8067832,-6.045563)" gradientUnits="userSpaceOnUse" xlink:href="#linearGradient4111"/><linearGradient id="linearGradient3696" x1="15" x2="15" y1="2" y2="21" gradientUnits="userSpaceOnUse" xlink:href="#linearGradient3698"/></defs><path style="fill:#474747;fill-opacity:1;stroke:#474747;stroke-width:1;stroke-linecap:round;stroke-linejoin:round;stroke-miterlimit:4;stroke-dasharray:none;stroke-dashoffset:.69999999;stroke-opacity:1" id="rect7213" d="m 4.2095324,4.4999347 c -2.0298977,0 -3.70974655,1.6466263 -3.70974655,3.6363784 V 14.727249 C 0.49978585,16.717001 2.1796347,18.5 4.2095324,18.5 H 8 v -3 H 4.2095324 C 3.7724597,15.5 3.5,15.155678 3.5,14.727249 V 8.1363131 C 3.5,7.7078852 3.7724597,7.5 4.2095324,7.5 H 19.790468 c 0.437075,0 0.741949,0.2078845 0.741949,0.6363131 V 14.727249 C 20.532417,15.155677 20.22754,15.5 19.790468,15.5 H 16.5 V 13.227243 L 10.887076,16.863622 16.5,20.5 v -2 h 3.290468 c 2.029897,0 3.709745,-1.782999 3.709746,-3.772751 V 8.1363131 c 0,-1.9897521 -1.679848,-3.6363784 -3.709746,-3.6363784 z"/><path style="opacity:.4;fill:none;stroke:none;stroke-width:.79999995;stroke-linecap:round;stroke-linejoin:miter;stroke-miterlimit:4;stroke-dashoffset:.69999999;stroke-opacity:1" id="path7239" d="m 4.2095323,5.4090293 c -1.5171757,0 -2.7823098,1.2401134 -2.7823098,2.7272839 v 6.5909358 c 0,1.487171 1.2651341,2.727284 2.7823098,2.727284 H 6.9918422 V 16.36362 H 4.2095323 c -0.869244,0 -1.6693859,-0.784318 -1.6693859,-1.636371 V 8.1363132 c 0,-0.852053 0.8001412,-1.6363704 1.6693859,-1.6363704 H 19.790468 c 0.869244,0 1.669386,0.7843218 1.669386,1.6363704 v 6.5909358 c 0,0.852053 -0.800142,1.636371 -1.669386,1.636371 H 16.080721 C 15.568968,16.362529 15.5011,15.956157 15.5,15.454525 V 14.999978 L 12.486904,16.863622 15.5,18.727266 v -0.363638 c 0.0011,-0.501632 0.06897,-0.908016 0.580721,-0.909095 h 3.709747 c 1.517175,0 2.782309,-1.240113 2.78231,-2.727284 V 8.1363132 c 0,-1.4871705 -1.265134,-2.7272839 -2.78231,-2.7272839 z"/></svg>