<svg xmlns="http://www.w3.org/2000/svg" xmlns:svg="http://www.w3.org/2000/svg" id="Layer_1" x="0" y="0" version="1.1" viewBox="0 0 32 32" xml:space="preserve" style="enable-background:new 0 0 32 32"><metadata id="metadata33"/><style id="style2" type="text/css">.st0{fill:none}.st1{fill:#01a0de}</style><g id="g26" transform="matrix(1.1072664,0,0,1.1072664,-1.7162624,-1.7320626)"><g id="g10"><line id="line4" x1="8.4" x2="5" y1="25.2" y2="29" class="st0" style="fill:none"/><g id="g8"><path id="path6" d="M 7.7,24.4 C 6.6,25.7 5.4,27 4.3,28.2 3.4,29.3 4.9,30.8 5.9,29.8 7,28.5 8.2,27.2 9.3,26 10.2,24.9 8.6,23.3 7.7,24.4 Z"/></g></g><g id="g18"><line id="line12" x1="23.6" x2="27" y1="25.1" y2="29" class="st0" style="fill:none"/><g id="g16"><path id="path14" d="m 22.8,25.9 c 1.1,1.3 2.3,2.6 3.4,3.8 0.9,1.1 2.5,-0.5 1.6,-1.6 -1.1,-1.3 -2.3,-2.6 -3.4,-3.8 -1,-1 -2.6,0.6 -1.6,1.6 z"/></g></g><g id="g24"><path id="path20" d="m 16,1.9 c -3.2,0 -5.7,2.5 -5.7,5.7 H 21.7 C 21.7,4.4 19.1,1.9 16,1.9 Z" class="st1" style="fill:#01a0de"/><path id="path22" d="m 29.4,16.9 c -1.4,0 -2.8,0 -4.2,0 v -5.3 c 0.1,0 0.1,-0.1 0.2,-0.2 1,-1 2,-2 2.9,-2.9 1,-1 -0.6,-2.6 -1.6,-1.6 -1,1 -2,2 -2.9,2.9 -0.1,0.1 -0.1,0.1 -0.2,0.2 H 17.2 14.8 8.4 C 8.4,9.9 8.3,9.9 8.2,9.8 c -1,-1 -2,-2 -2.9,-2.9 -1,-1 -2.6,0.6 -1.6,1.6 1,1 2,2 2.9,2.9 0.1,0.1 0.1,0.1 0.2,0.2 V 17 c -1.4,0 -2.8,0 -4.2,0 -1.4,0 -1.4,2.2 0,2.2 1.4,0 2.8,0 4.2,0 v 1.2 c 0,1.4 0.4,2.7 1,3.9 l -0.1,0.1 c -1.1,1.3 -2.3,2.6 -3.4,3.8 -0.9,1.1 0.6,2.6 1.6,1.6 1.1,-1.3 2.2,-2.5 3.3,-3.7 1.4,1.4 3.4,2.3 5.6,2.3 V 12.2 h 2.4 v 16.2 c 2.2,0 4.2,-0.9 5.7,-2.4 1.1,1.3 2.2,2.5 3.3,3.7 0.9,1.1 2.5,-0.5 1.6,-1.6 -1.1,-1.3 -2.3,-2.6 -3.4,-3.8 0,0 -0.1,-0.1 -0.2,-0.1 0.6,-1.1 1,-2.4 1,-3.8 v -1.3 c 1.4,0 2.8,0 4.2,0 1.4,0 1.4,-2.2 0,-2.2 z" class="st1" style="fill:#01a0de"/></g></g></svg>