<svg xmlns="http://www.w3.org/2000/svg" xmlns:svg="http://www.w3.org/2000/svg" id="Layer_1" data-name="Layer 1" version="1.1" viewBox="0 0 32 32"><metadata id="metadata13"/><defs id="defs4"><style id="style2">.cls-1{fill:#ba63c6}</style></defs><path id="path8" d="M 1.2583975e-4,28.522554 A 2.2844525,2.2844525 0 0 1 2.2845784,26.238101 H 14.849067 c 3.118278,0 4.568905,-1.450627 4.568905,-4.568905 V 7.871103 l -1.142226,2.284453 -2.935522,2.935521 a 2.2857235,2.2857235 0 0 1 -3.232501,-3.2325 l 7.995585,-7.995584 a 2.2844525,2.2844525 0 0 1 3.2325,0 l 7.995584,7.995584 a 2.2857231,2.2857231 0 0 1 -3.2325,3.2325 L 25.129103,10.007066 23.986877,7.7911472 V 21.669196 c 0,5.631175 -3.506635,9.13781 -9.13781,9.13781 H 2.2845784 A 2.2844525,2.2844525 0 0 1 1.2583975e-4,28.522554 Z" class="cls-1" style="fill:#474747;fill-opacity:1;stroke-width:1.14222622"/></svg>