<svg xmlns="http://www.w3.org/2000/svg" xmlns:svg="http://www.w3.org/2000/svg" id="Layer_1" width="24" height="24" enable-background="new 0 0 24 24" version="1.1" viewBox="0 0 24 24" xml:space="preserve"><metadata id="metadata13"/><path id="path819" d="M 12,8.9e-5 C 5.440049,8.9e-5 8.9e-5,5.440048 8.9e-5,12 8.9e-5,18.639951 5.440049,23.999911 12,23.999911 18.639951,23.999911 23.999911,18.639951 23.999911,12 23.999911,5.440048 18.639951,8.9e-5 12,8.9e-5 Z m 0,21.999837 C 6.480041,21.999926 2.000074,17.519959 2.000074,12 2.000074,6.480041 6.480041,2.000074 12,2.000074 c 5.519959,0 9.999926,4.479967 9.999926,9.999926 0,5.519959 -4.479967,9.999926 -9.999926,9.999926 z" style="fill:#474747;fill-opacity:1;fill-rule:nonzero;stroke:none"/><path id="path821" d="m 15.839971,9.120021 c 0,-0.559996 -0.399997,-0.959993 -0.959992,-0.959993 H 9.1200205 c -0.559995,0 -0.959992,0.399997 -0.959992,0.959993 v 5.759958 c 0,0.559996 0.399997,0.959993 0.959992,0.959993 h 5.7599585 c 0.559995,0 0.959992,-0.399997 0.959992,-0.959993 z m -0.959992,5.759958 H 9.1200205 V 9.120021 h 5.7599575 z" style="fill:none;stroke:#474747;stroke-width:.95999289px;stroke-linecap:butt;stroke-linejoin:miter;stroke-miterlimit:4;stroke-dasharray:none;stroke-opacity:1"/><path id="path823" d="m 9.120021,9.120021 h 5.759958 v 5.759958 H 9.120021 Z" style="fill:#474747;fill-opacity:1;fill-rule:nonzero;stroke:#474747;stroke-width:1.03999233px;stroke-linecap:butt;stroke-linejoin:miter;stroke-miterlimit:4;stroke-dasharray:none;stroke-opacity:1"/></svg>