<svg xmlns="http://www.w3.org/2000/svg" xmlns:svg="http://www.w3.org/2000/svg" id="svg2" width="32" height="32" version="1.1" viewBox="0 0 32 32"><metadata id="metadata13"/><g style="fill:#ff7800;fill-opacity:1;fill-rule:evenodd;stroke:none;stroke-width:1" id="101 Warning" transform="matrix(1.1631458,0,0,1.3899541,-2.6779248,-6.3253716)"><path id="Triangle 29" d="m 14.424233,6.1483927 c 0.870066,-1.4076629 2.282795,-1.4043083 3.150787,0 L 28.36011,23.59738 C 29.521639,25.476595 28.675546,27 26.471407,27 L 5.5278464,27 C 3.3232156,27 2.4738632,25.482664 3.6391433,23.59738 Z M 16,20 c 0.552285,0 1,-0.453036 1,-0.99703 l 0,-6.00594 C 17,12.446386 16.556135,12 16,12 c -0.552285,0 -1,0.453036 -1,0.99703 l 0,6.00594 C 15,19.553614 15.443865,20 16,20 Z m 0,4 c 0.552285,0 1,-0.447715 1,-1 0,-0.552285 -0.447715,-1 -1,-1 -0.552285,0 -1,0.447715 -1,1 0,0.552285 0.447715,1 1,1 z m 0,0" style="fill:#ff7800;fill-opacity:1"/></g></svg>