<svg xmlns="http://www.w3.org/2000/svg" xmlns:svg="http://www.w3.org/2000/svg" xmlns:xlink="http://www.w3.org/1999/xlink" id="svg2" width="48" height="48" version="1.2" style="display:inline"><defs id="defs4"><linearGradient id="linearGradient3104"><stop id="stop3106" offset="0" style="stop-color:#aaa;stop-opacity:1"/><stop id="stop3108" offset="1" style="stop-color:#d2d2d2;stop-opacity:1"/></linearGradient><linearGradient id="linearGradient3600"><stop id="stop3602" offset="0" style="stop-color:#f4f4f4;stop-opacity:1"/><stop id="stop3604" offset="1" style="stop-color:#dbdbdb;stop-opacity:1"/></linearGradient><linearGradient id="linearGradient5048"><stop id="stop5050" offset="0" style="stop-color:#000;stop-opacity:0"/><stop id="stop5056" offset=".5" style="stop-color:#000;stop-opacity:1"/><stop id="stop5052" offset="1" style="stop-color:#000;stop-opacity:0"/></linearGradient><linearGradient id="linearGradient5060"><stop id="stop5062" offset="0" style="stop-color:#000;stop-opacity:1"/><stop id="stop5064" offset="1" style="stop-color:#000;stop-opacity:0"/></linearGradient><linearGradient id="linearGradient4354" x1="28.976" x2="29" y1="31.07" y2="40.005" gradientTransform="matrix(0.750053,0,0,0.750052,49.87293,11.12351)" gradientUnits="userSpaceOnUse" xlink:href="#linearGradient4457"/><linearGradient id="linearGradient4350" x1="28.976" x2="29" y1="31.07" y2="40.005" gradientTransform="translate(-1,-1)" gradientUnits="userSpaceOnUse" xlink:href="#linearGradient4457"/><radialGradient id="radialGradient4348" cx="9.375" cy="9.375" r="9.375" fx="9.375" fy="9.375" gradientUnits="userSpaceOnUse" xlink:href="#linearGradient3524"/><radialGradient id="radialGradient4346" cx="9.375" cy="9.375" r="9.375" fx="9.375" fy="9.375" gradientUnits="userSpaceOnUse" xlink:href="#linearGradient3524"/><radialGradient id="radialGradient4344" cx="9.375" cy="9.375" r="9.375" fx="9.375" fy="9.375" gradientUnits="userSpaceOnUse" xlink:href="#linearGradient3524"/><linearGradient id="linearGradient4457"><stop id="stop4459" offset="0" style="stop-color:#c00;stop-opacity:1"/><stop id="stop4461" offset="1" style="stop-color:#ef2929;stop-opacity:1"/></linearGradient><linearGradient id="linearGradient3524"><stop id="stop5270" offset="0" style="stop-color:#729fcf;stop-opacity:0"/><stop id="stop5272" offset=".85" style="stop-color:#729fcf;stop-opacity:0"/><stop id="stop3528" offset="1" style="stop-color:#729fcf;stop-opacity:1"/></linearGradient><linearGradient id="linearGradient4498" x1="28.976" x2="29" y1="31.07" y2="40.005" gradientTransform="translate(-502.68371,-258.25453)" gradientUnits="userSpaceOnUse" xlink:href="#linearGradient4457"/><radialGradient id="radialGradient3345" cx="9.375" cy="9.375" r="9.375" fx="9.375" fy="9.375" gradientUnits="userSpaceOnUse" xlink:href="#linearGradient3524"/><radialGradient id="radialGradient3347" cx="9.375" cy="9.375" r="9.375" fx="9.375" fy="9.375" gradientUnits="userSpaceOnUse" xlink:href="#linearGradient3524"/><radialGradient id="radialGradient3349" cx="9.375" cy="9.375" r="9.375" fx="9.375" fy="9.375" gradientUnits="userSpaceOnUse" xlink:href="#linearGradient3524"/><linearGradient id="linearGradient3351" x1="28.976" x2="29" y1="31.07" y2="40.005" gradientTransform="translate(-1,-1)" gradientUnits="userSpaceOnUse" xlink:href="#linearGradient4457"/><linearGradient id="linearGradient3355" x1="28.976" x2="29" y1="31.07" y2="40.005" gradientTransform="matrix(0.750053,0,0,0.750052,49.87293,11.12351)" gradientUnits="userSpaceOnUse" xlink:href="#linearGradient4457"/><linearGradient id="linearGradient3436" x1="28.976" x2="29" y1="31.07" y2="40.005" gradientTransform="translate(-371.68544,-280.57074)" gradientUnits="userSpaceOnUse" xlink:href="#linearGradient4457"/><linearGradient id="linearGradient3584" x1="302.857" x2="302.857" y1="366.648" y2="609.505" gradientTransform="matrix(0.0704142,0,0,0.01537476,-1.4497047,38.629007)" gradientUnits="userSpaceOnUse" xlink:href="#linearGradient5048"/><radialGradient id="radialGradient3586" cx="605.714" cy="486.648" r="117.143" fx="605.714" fy="486.648" gradientTransform="matrix(-0.02409717,0,0,0.01537476,21.522412,38.629039)" gradientUnits="userSpaceOnUse" xlink:href="#linearGradient5060"/><radialGradient id="radialGradient3588" cx="605.714" cy="486.648" r="117.143" fx="605.714" fy="486.648" gradientTransform="matrix(0.02409717,0,0,0.01537476,26.477584,38.629039)" gradientUnits="userSpaceOnUse" xlink:href="#linearGradient5060"/><linearGradient id="linearGradient3601" x1="25.132" x2="25.132" y1="6.729" y2="47.013" gradientTransform="translate(-0.008002,0)" gradientUnits="userSpaceOnUse" xlink:href="#linearGradient3600"/><linearGradient id="linearGradient3603" x1="-51.786" x2="-51.786" y1="50.786" y2="2.906" gradientTransform="matrix(0.8074968,0,0,0.9358511,59.402234,-1.1144794)" gradientUnits="userSpaceOnUse" xlink:href="#linearGradient3104"/><radialGradient id="XMLID_8_" cx="102" cy="112.305" r="139.559" gradientUnits="userSpaceOnUse"><stop id="stop41" offset="0" style="stop-color:#b7b8b9;stop-opacity:1"/><stop id="stop47" offset=".189" style="stop-color:#ececec;stop-opacity:1"/><stop id="stop49" offset=".257" style="stop-color:#fafafa;stop-opacity:0"/><stop id="stop51" offset=".301" style="stop-color:#fff;stop-opacity:0"/><stop id="stop53" offset=".531" style="stop-color:#fafafa;stop-opacity:0"/><stop id="stop55" offset=".845" style="stop-color:#ebecec;stop-opacity:0"/><stop id="stop57" offset="1" style="stop-color:#e1e2e3;stop-opacity:0"/></radialGradient><filter id="filter3248" width="1.297" height="1.329" x="-.148" y="-.164" color-interpolation-filters="sRGB"><feGaussianBlur id="feGaussianBlur3250" stdDeviation=".774"/></filter><linearGradient id="linearGradient2633" x1="32.892" x2="36.358" y1="8.059" y2="5.457" gradientTransform="matrix(0.99771106,0,0,1.0406866,0.163717,0.8942047)" gradientUnits="userSpaceOnUse" xlink:href="#linearGradient8589-8"/><linearGradient id="linearGradient8589-8"><stop id="stop8591-1" offset="0" style="stop-color:#fefefe;stop-opacity:1"/><stop id="stop8593-2" offset="1" style="stop-color:#cbcbcb;stop-opacity:1"/></linearGradient><radialGradient id="radialGradient2965" cx="102" cy="112.305" r="139.559" gradientTransform="matrix(0.36170675,0,0,-0.3907784,0.850987,49.517004)" gradientUnits="userSpaceOnUse" xlink:href="#XMLID_8_"/><linearGradient id="linearGradient3211"><stop id="stop3213" offset="0" style="stop-color:#fff;stop-opacity:1"/><stop id="stop3215" offset="1" style="stop-color:#fff;stop-opacity:0"/></linearGradient><linearGradient id="linearGradient2890" x1="24" x2="24" y1="2" y2="46.017" gradientTransform="matrix(1,0,0,0.9777778,-2.1934468e-8,-0.9888879)" gradientUnits="userSpaceOnUse" xlink:href="#linearGradient3211"/></defs><g id="layer1" transform="matrix(0.99999843,0,0,1,7.6393678e-6,-1.9999997)" style="display:inline"><rect id="rect3370" width="16" height="16" x="-483.684" y="-234.255" style="fill:#d3d7cf;fill-opacity:1;fill-rule:evenodd;stroke:none;stroke-width:1;marker:none;visibility:visible;display:none;overflow:visible"/><rect id="rect3372" width="22" height="22" x="-483.684" y="-208.255" style="fill:#d3d7cf;fill-opacity:1;fill-rule:evenodd;stroke:none;stroke-width:1;marker:none;visibility:visible;display:none;overflow:visible"/><path id="path3374" d="m 18.75,9.375 a 9.375,9.375 0 1 1 -18.75,0 9.375,9.375 0 1 1 18.75,0 z" transform="matrix(1.706666,0,0,1.706666,-431.68371,-179.25453)" style="fill:url(#radialGradient4344);fill-opacity:1;fill-rule:evenodd;stroke:none;stroke-width:.60878164;marker:none;visibility:visible;display:none;overflow:visible"/><path id="path3376" d="m 18.75,9.375 a 9.375,9.375 0 1 1 -18.75,0 9.375,9.375 0 1 1 18.75,0 z" transform="matrix(2.133334,0,0,2.133334,-435.68371,-183.25454)" style="fill:url(#radialGradient4346);fill-opacity:1;fill-rule:evenodd;stroke:none;stroke-width:.48148614;marker:none;visibility:visible;display:none;overflow:visible"/><path id="path3378" d="m 18.75,9.375 a 9.375,9.375 0 1 1 -18.75,0 9.375,9.375 0 1 1 18.75,0 z" transform="matrix(2.559999,0,0,2.559999,-439.68371,-187.25453)" style="fill:url(#radialGradient4348);fill-opacity:1;fill-rule:evenodd;stroke:none;stroke-width:.39974412;marker:none;visibility:visible;display:none;overflow:visible"/><g id="g3380" transform="translate(-619.68376,-199.75453)" style="display:none"><path id="path3382" d="m 57,28.5 a 1.75,1 0 1 1 -3.5,0 1.75,1 0 1 1 3.5,0 z" transform="matrix(1.142857,0,0,1.5,-11.14285,-8.25)" style="fill:#000;fill-opacity:1;fill-rule:evenodd;stroke:none;stroke-width:1;marker:none;visibility:visible;display:inline;overflow:visible"/><rect id="rect3384" width="1" height="8.5" x="53" y="26" style="fill:#000;fill-opacity:1;fill-rule:evenodd;stroke:none;stroke-width:1;marker:none;visibility:visible;display:inline;overflow:visible"/><path id="path3386" d="m 54,26 c 2,0 1.5,3 2.5,2.999999 C 54.5,29 56,27.5 54,27.5 L 54,26 z" style="fill:#000;fill-opacity:1;fill-rule:evenodd;stroke:none"/></g><g id="g3388" transform="translate(-619.68376,-199.75453)" style="display:none"><path id="path3390" d="m 57,28.5 a 1.75,1 0 1 1 -3.5,0 1.75,1 0 1 1 3.5,0 z" transform="matrix(1.142857,0,0,1.5,-2.642849,-8.25)" style="fill:#000;fill-opacity:1;fill-rule:evenodd;stroke:none;stroke-width:1;marker:none;visibility:visible;display:inline;overflow:visible"/><rect id="rect3392" width="1" height="8.5" x="61.5" y="26" style="fill:#000;fill-opacity:1;fill-rule:evenodd;stroke:none;stroke-width:1;marker:none;visibility:visible;display:inline;overflow:visible"/><path id="path3394" d="M 62.500001,26 C 64.5,26 64,28.500001 65,28.5 c -1.500001,1e-6 -0.499999,-1 -2.499999,-1 l 0,-1.5 z" style="fill:#000;fill-opacity:1;fill-rule:evenodd;stroke:none"/><path id="path3396" d="M 62.500001,28 C 64.5,28 64,30.500001 65,30.5 c -1.500001,1e-6 -0.499999,-1 -2.499999,-1 l 0,-1.5 z" style="fill:#000;fill-opacity:1;fill-rule:evenodd;stroke:none;display:inline"/></g><g id="g3399" transform="translate(-541.68371,-234.25453)" style="display:none"><path id="path3401" d="m 57,28.5 a 1.75,1 0 1 1 -3.5,0 1.75,1 0 1 1 3.5,0 z" transform="matrix(-1.142857,0,0,-1.5,56.14275,104.75)" style="fill:#000;fill-opacity:1;fill-rule:evenodd;stroke:none;stroke-width:1;marker:none;visibility:visible;display:inline;overflow:visible"/><rect id="rect3403" width="1" height="8.5" x="8" y="-70.5" transform="scale(-1,-1)" style="fill:#000;fill-opacity:1;fill-rule:evenodd;stroke:none;stroke-width:1;marker:none;visibility:visible;display:inline;overflow:visible"/><path id="path3405" d="m -8.00005,70.499999 c 2,0 1.5,-3 2.5,-2.999999 -2,-10e-7 -0.5,1.499999 -2.5,1.499999 l 0,1.5 z" style="fill:#000;fill-opacity:1;fill-rule:evenodd;stroke:none;display:inline"/></g><g id="g3407" transform="translate(-620.18371,-199.75453)" style="display:none"><path id="path3409" d="m 57,28.5 a 1.75,1 0 1 1 -3.5,0 1.75,1 0 1 1 3.5,0 z" transform="matrix(-1.142857,0,0,-1.5,142.6428,70.25)" style="fill:#000;fill-opacity:1;fill-rule:evenodd;stroke:none;stroke-width:1;marker:none;visibility:visible;display:inline;overflow:visible"/><rect id="rect3411" width="1" height="8.5" x="-78.5" y="-36" transform="scale(-1,-1)" style="fill:#000;fill-opacity:1;fill-rule:evenodd;stroke:none;stroke-width:1;marker:none;visibility:visible;display:inline;overflow:visible"/><path id="path3413" d="M 78.500001,36 C 80.5,36 80,33.499999 81,33.5 c -1.500001,-10e-7 -0.499999,1 -2.499999,1 l 0,1.5 z" style="fill:#000;fill-opacity:1;fill-rule:evenodd;stroke:none"/><path id="path3415" d="M 78.500001,34 C 80.5,34 80,31.499999 81,31.5 c -1.500001,-1e-6 -0.499999,1 -2.499999,1 l 0,1.5 z" style="fill:#000;fill-opacity:1;fill-rule:evenodd;stroke:none;display:inline"/></g><g id="g3417" transform="translate(-540.68371,-235.25453)" style="display:none"><path id="path3419" d="m 57,28.5 a 1.75,1 0 1 1 -3.5,0 1.75,1 0 1 1 3.5,0 z" transform="matrix(1.142857,0,0,1.5,-89.14285,39.75)" style="fill:#000;fill-opacity:1;fill-rule:evenodd;stroke:none;stroke-width:1;marker:none;visibility:visible;display:inline;overflow:visible"/><path id="path3421" d="m -25,74 6,1.5 0,8.5 -1,0 0,-7 -4,-1 0,6.5 -1,0 0,-8.5 z" style="fill:#000;fill-opacity:1;fill-rule:evenodd;stroke:none;stroke-width:1;marker:none;visibility:visible;display:inline;overflow:visible"/><path id="path3423" d="m 57,28.5 a 1.75,1 0 1 1 -3.5,0 1.75,1 0 1 1 3.5,0 z" transform="matrix(1.142857,0,0,1.5,-84.14285,41.25)" style="fill:#000;fill-opacity:1;fill-rule:evenodd;stroke:none;stroke-width:1;marker:none;visibility:visible;display:inline;overflow:visible"/></g><g id="g3425" transform="translate(-542.18371,-236.25453)" style="display:none"><path id="path3427" d="m 57,28.5 a 1.75,1 0 1 1 -3.5,0 1.75,1 0 1 1 3.5,0 z" transform="matrix(1.142857,0,0,-1.5,-74.64285,120.75)" style="fill:#000;fill-opacity:1;fill-rule:evenodd;stroke:none;stroke-width:1;marker:none;visibility:visible;display:inline;overflow:visible"/><path id="path3429" d="m -13.5,86.5 6,-1.5 0,-8.5 -1,0 0,7 -4,1 0,-6.5 -1,0 0,8.5 z" style="fill:#000;fill-opacity:1;fill-rule:evenodd;stroke:none;stroke-width:1;marker:none;visibility:visible;display:inline;overflow:visible"/><path id="path3431" d="m 57,28.5 a 1.75,1 0 1 1 -3.5,0 1.75,1 0 1 1 3.5,0 z" transform="matrix(1.142857,0,0,-1.5,-69.64285,119.25)" style="fill:#000;fill-opacity:1;fill-rule:evenodd;stroke:none;stroke-width:1;marker:none;visibility:visible;display:inline;overflow:visible"/></g><path id="path3433" d="m 80,37 a 16,16 0 1 1 -32,0 16,16 0 1 1 32,0 z" transform="translate(-478.1789,-155.24973)" style="fill:#5c3566;fill-opacity:1;fill-rule:evenodd;stroke:none;stroke-width:1;marker:none;visibility:visible;display:none;overflow:visible"/><path id="path3435" d="m 80,37 a 16,16 0 1 1 -32,0 16,16 0 1 1 32,0 z" transform="matrix(0.7503,0,0,0.7503,-462.19811,-146.01083)" style="fill:#75507b;fill-opacity:1;fill-rule:evenodd;stroke:none;stroke-width:1;marker:none;visibility:visible;display:none;overflow:visible"/><path id="path3437" d="m 80,37 a 16,16 0 1 1 -32,0 16,16 0 1 1 32,0 z" transform="matrix(0.499916,0,0,0.499916,-446.17354,-136.74663)" style="fill:#ad7fa8;fill-opacity:1;fill-rule:evenodd;stroke:none;stroke-width:1;marker:none;visibility:visible;display:none;overflow:visible"/><g id="g3439" transform="translate(-541.68371,-235.25453)" style="display:none"><rect id="rect3441" width="12" height="12" x="26.5" y="27.5" ry="1.085" style="fill:url(#linearGradient4350);fill-opacity:1;fill-rule:evenodd;stroke:#a40000;stroke-width:1;stroke-linecap:round;stroke-linejoin:miter;stroke-miterlimit:4;stroke-opacity:1;stroke-dasharray:none;stroke-dashoffset:0;marker:none;visibility:visible;display:inline;overflow:visible"/><g id="g3443" transform="translate(-2.000047,-2.00005)"><rect id="rect3445" width="9" height="2" x="44.998" y="-.293" ry="0" transform="matrix(0.707107,0.707107,-0.707107,0.707107,0,0)" style="fill:#fff;fill-opacity:1;fill-rule:evenodd;stroke:none;stroke-width:1;marker:none;visibility:visible;display:inline;overflow:visible"/><rect id="rect3447" width="9" height="2" x="-3.793" y="48.498" ry="0" transform="matrix(-0.707107,0.707107,0.707107,0.707107,0,0)" style="fill:#fff;fill-opacity:1;fill-rule:evenodd;stroke:none;stroke-width:1;marker:none;visibility:visible;display:inline;overflow:visible"/></g><rect id="rect3449" width="10" height="10" x="27.5" y="28.5" ry="0" style="fill:none;stroke:#ef2929;stroke-width:1;stroke-linecap:round;stroke-linejoin:round;stroke-miterlimit:4;stroke-opacity:1;stroke-dasharray:none;stroke-dashoffset:0;marker:none;visibility:visible;display:inline;overflow:visible"/></g><rect id="rect3451" width="7" height="7" x="-475.184" y="-229.755" ry="1.085" style="fill:url(#linearGradient4498);fill-opacity:1;fill-rule:evenodd;stroke:#a40000;stroke-width:1;stroke-linecap:round;stroke-linejoin:miter;stroke-miterlimit:4;stroke-opacity:1;stroke-dasharray:none;stroke-dashoffset:0;marker:none;visibility:visible;display:none;overflow:visible"/><path id="path3453" d="m -474.18371,-227.75454 1,-1 4,4 -1,1 -4,-4 z" style="fill:#fff;fill-opacity:1;fill-rule:evenodd;stroke:none;display:none"/><path id="path3455" d="m -473.18371,-223.75454 -1,-1 4,-4 1,1 -4,4 z" style="fill:#fff;fill-opacity:1;fill-rule:evenodd;stroke:none;display:none"/><g id="g3457" transform="translate(-541.68371,-234.25453)" style="display:none"><rect id="rect3459" width="9.001" height="9.001" x="70.499" y="32.5" ry=".993" style="fill:url(#linearGradient4354);fill-opacity:1;fill-rule:evenodd;stroke:#a40000;stroke-width:1;stroke-linecap:round;stroke-linejoin:miter;stroke-miterlimit:4;stroke-opacity:1;stroke-dasharray:none;stroke-dashoffset:0;marker:none;visibility:visible;display:inline;overflow:visible"/><rect id="rect3461" width="7" height="7" x="71.5" y="33.5" ry="0" style="fill:none;stroke:#ef2929;stroke-width:1;stroke-linecap:round;stroke-linejoin:round;stroke-miterlimit:4;stroke-opacity:1;stroke-dasharray:none;stroke-dashoffset:0;marker:none;visibility:visible;display:inline;overflow:visible"/><g id="g3463"><path id="path3465" d="m 72.5,35.5 1,-1 4,4 -1,1 -4,-4 z" style="fill:#fff;fill-opacity:1;fill-rule:evenodd;stroke:none;display:inline"/><path id="path3467" d="m 73.5,39.5 -1,-1 4,-4 1,1 -4,4 z" style="fill:#fff;fill-opacity:1;fill-rule:evenodd;stroke:none;display:inline"/></g></g><rect id="rect2978" width="16" height="16" x="-352.685" y="-256.571" style="fill:#d3d7cf;fill-opacity:1;fill-rule:evenodd;stroke:none;stroke-width:1;marker:none;visibility:visible;display:none;overflow:visible"/><rect id="rect2980" width="22" height="22" x="-352.685" y="-230.571" style="fill:#d3d7cf;fill-opacity:1;fill-rule:evenodd;stroke:none;stroke-width:1;marker:none;visibility:visible;display:none;overflow:visible"/><path id="path2982" d="m 18.75,9.375 a 9.375,9.375 0 1 1 -18.75,0 9.375,9.375 0 1 1 18.75,0 z" transform="matrix(1.706666,0,0,1.706666,-300.68544,-201.57074)" style="fill:url(#radialGradient3345);fill-opacity:1;fill-rule:evenodd;stroke:none;stroke-width:.60878164;marker:none;visibility:visible;display:none;overflow:visible"/><path id="path2984" d="m 18.75,9.375 a 9.375,9.375 0 1 1 -18.75,0 9.375,9.375 0 1 1 18.75,0 z" transform="matrix(2.133334,0,0,2.133334,-304.68544,-205.57075)" style="fill:url(#radialGradient3347);fill-opacity:1;fill-rule:evenodd;stroke:none;stroke-width:.48148614;marker:none;visibility:visible;display:none;overflow:visible"/><path id="path2986" d="m 18.75,9.375 a 9.375,9.375 0 1 1 -18.75,0 9.375,9.375 0 1 1 18.75,0 z" transform="matrix(2.559999,0,0,2.559999,-308.68544,-209.57074)" style="fill:url(#radialGradient3349);fill-opacity:1;fill-rule:evenodd;stroke:none;stroke-width:.39974412;marker:none;visibility:visible;display:none;overflow:visible"/><g id="g2988" transform="translate(-488.68549,-222.07074)" style="display:none"><path id="path2990" d="m 57,28.5 a 1.75,1 0 1 1 -3.5,0 1.75,1 0 1 1 3.5,0 z" transform="matrix(1.142857,0,0,1.5,-11.14285,-8.25)" style="fill:#000;fill-opacity:1;fill-rule:evenodd;stroke:none;stroke-width:1;marker:none;visibility:visible;display:inline;overflow:visible"/><rect id="rect2992" width="1" height="8.5" x="53" y="26" style="fill:#000;fill-opacity:1;fill-rule:evenodd;stroke:none;stroke-width:1;marker:none;visibility:visible;display:inline;overflow:visible"/><path id="path2994" d="m 54,26 c 2,0 1.5,3 2.5,2.999999 C 54.5,29 56,27.5 54,27.5 L 54,26 z" style="fill:#000;fill-opacity:1;fill-rule:evenodd;stroke:none"/></g><g id="g2996" transform="translate(-488.68549,-222.07074)" style="display:none"><path id="path2998" d="m 57,28.5 a 1.75,1 0 1 1 -3.5,0 1.75,1 0 1 1 3.5,0 z" transform="matrix(1.142857,0,0,1.5,-2.642849,-8.25)" style="fill:#000;fill-opacity:1;fill-rule:evenodd;stroke:none;stroke-width:1;marker:none;visibility:visible;display:inline;overflow:visible"/><rect id="rect3000" width="1" height="8.5" x="61.5" y="26" style="fill:#000;fill-opacity:1;fill-rule:evenodd;stroke:none;stroke-width:1;marker:none;visibility:visible;display:inline;overflow:visible"/><path id="path3002" d="M 62.500001,26 C 64.5,26 64,28.500001 65,28.5 c -1.500001,1e-6 -0.499999,-1 -2.499999,-1 l 0,-1.5 z" style="fill:#000;fill-opacity:1;fill-rule:evenodd;stroke:none"/><path id="path3004" d="M 62.500001,28 C 64.5,28 64,30.500001 65,30.5 c -1.500001,1e-6 -0.499999,-1 -2.499999,-1 l 0,-1.5 z" style="fill:#000;fill-opacity:1;fill-rule:evenodd;stroke:none;display:inline"/></g><g id="g3007" transform="translate(-410.68544,-256.57074)" style="display:none"><path id="path3009" d="m 57,28.5 a 1.75,1 0 1 1 -3.5,0 1.75,1 0 1 1 3.5,0 z" transform="matrix(-1.142857,0,0,-1.5,56.14275,104.75)" style="fill:#000;fill-opacity:1;fill-rule:evenodd;stroke:none;stroke-width:1;marker:none;visibility:visible;display:inline;overflow:visible"/><rect id="rect3011" width="1" height="8.5" x="8" y="-70.5" transform="scale(-1,-1)" style="fill:#000;fill-opacity:1;fill-rule:evenodd;stroke:none;stroke-width:1;marker:none;visibility:visible;display:inline;overflow:visible"/><path id="path3013" d="m -8.00005,70.499999 c 2,0 1.5,-3 2.5,-2.999999 -2,-10e-7 -0.5,1.499999 -2.5,1.499999 l 0,1.5 z" style="fill:#000;fill-opacity:1;fill-rule:evenodd;stroke:none;display:inline"/></g><g id="g3015" transform="translate(-489.18544,-222.07074)" style="display:none"><path id="path3017" d="m 57,28.5 a 1.75,1 0 1 1 -3.5,0 1.75,1 0 1 1 3.5,0 z" transform="matrix(-1.142857,0,0,-1.5,142.6428,70.25)" style="fill:#000;fill-opacity:1;fill-rule:evenodd;stroke:none;stroke-width:1;marker:none;visibility:visible;display:inline;overflow:visible"/><rect id="rect3019" width="1" height="8.5" x="-78.5" y="-36" transform="scale(-1,-1)" style="fill:#000;fill-opacity:1;fill-rule:evenodd;stroke:none;stroke-width:1;marker:none;visibility:visible;display:inline;overflow:visible"/><path id="path3021" d="M 78.500001,36 C 80.5,36 80,33.499999 81,33.5 c -1.500001,-10e-7 -0.499999,1 -2.499999,1 l 0,1.5 z" style="fill:#000;fill-opacity:1;fill-rule:evenodd;stroke:none"/><path id="path3023" d="M 78.500001,34 C 80.5,34 80,31.499999 81,31.5 c -1.500001,-1e-6 -0.499999,1 -2.499999,1 l 0,1.5 z" style="fill:#000;fill-opacity:1;fill-rule:evenodd;stroke:none;display:inline"/></g><g id="g3025" transform="translate(-409.68544,-257.57074)" style="display:none"><path id="path3027" d="m 57,28.5 a 1.75,1 0 1 1 -3.5,0 1.75,1 0 1 1 3.5,0 z" transform="matrix(1.142857,0,0,1.5,-89.14285,39.75)" style="fill:#000;fill-opacity:1;fill-rule:evenodd;stroke:none;stroke-width:1;marker:none;visibility:visible;display:inline;overflow:visible"/><path id="path3029" d="m -25,74 6,1.5 0,8.5 -1,0 0,-7 -4,-1 0,6.5 -1,0 0,-8.5 z" style="fill:#000;fill-opacity:1;fill-rule:evenodd;stroke:none;stroke-width:1;marker:none;visibility:visible;display:inline;overflow:visible"/><path id="path3031" d="m 57,28.5 a 1.75,1 0 1 1 -3.5,0 1.75,1 0 1 1 3.5,0 z" transform="matrix(1.142857,0,0,1.5,-84.14285,41.25)" style="fill:#000;fill-opacity:1;fill-rule:evenodd;stroke:none;stroke-width:1;marker:none;visibility:visible;display:inline;overflow:visible"/></g><g id="g3033" transform="translate(-411.18544,-258.57074)" style="display:none"><path id="path3035" d="m 57,28.5 a 1.75,1 0 1 1 -3.5,0 1.75,1 0 1 1 3.5,0 z" transform="matrix(1.142857,0,0,-1.5,-74.64285,120.75)" style="fill:#000;fill-opacity:1;fill-rule:evenodd;stroke:none;stroke-width:1;marker:none;visibility:visible;display:inline;overflow:visible"/><path id="path3037" d="m -13.5,86.5 6,-1.5 0,-8.5 -1,0 0,7 -4,1 0,-6.5 -1,0 0,8.5 z" style="fill:#000;fill-opacity:1;fill-rule:evenodd;stroke:none;stroke-width:1;marker:none;visibility:visible;display:inline;overflow:visible"/><path id="path3039" d="m 57,28.5 a 1.75,1 0 1 1 -3.5,0 1.75,1 0 1 1 3.5,0 z" transform="matrix(1.142857,0,0,-1.5,-69.64285,119.25)" style="fill:#000;fill-opacity:1;fill-rule:evenodd;stroke:none;stroke-width:1;marker:none;visibility:visible;display:inline;overflow:visible"/></g><path id="path3041" d="m 80,37 a 16,16 0 1 1 -32,0 16,16 0 1 1 32,0 z" transform="translate(-347.18064,-177.56594)" style="fill:#5c3566;fill-opacity:1;fill-rule:evenodd;stroke:none;stroke-width:1;marker:none;visibility:visible;display:none;overflow:visible"/><path id="path3043" d="m 80,37 a 16,16 0 1 1 -32,0 16,16 0 1 1 32,0 z" transform="matrix(0.7503,0,0,0.7503,-331.19984,-168.32704)" style="fill:#75507b;fill-opacity:1;fill-rule:evenodd;stroke:none;stroke-width:1;marker:none;visibility:visible;display:none;overflow:visible"/><path id="path3045" d="m 80,37 a 16,16 0 1 1 -32,0 16,16 0 1 1 32,0 z" transform="matrix(0.499916,0,0,0.499916,-315.17528,-159.06284)" style="fill:#ad7fa8;fill-opacity:1;fill-rule:evenodd;stroke:none;stroke-width:1;marker:none;visibility:visible;display:none;overflow:visible"/><g id="g3047" transform="translate(-410.68544,-257.57074)" style="display:none"><rect id="rect3049" width="12" height="12" x="26.5" y="27.5" ry="1.085" style="fill:url(#linearGradient3351);fill-opacity:1;fill-rule:evenodd;stroke:#a40000;stroke-width:1;stroke-linecap:round;stroke-linejoin:miter;stroke-miterlimit:4;stroke-opacity:1;stroke-dasharray:none;stroke-dashoffset:0;marker:none;visibility:visible;display:inline;overflow:visible"/><g id="g3051" transform="translate(-2.000047,-2.00005)"><rect id="rect3053" width="9" height="2" x="44.998" y="-.293" ry="0" transform="matrix(0.707107,0.707107,-0.707107,0.707107,0,0)" style="fill:#fff;fill-opacity:1;fill-rule:evenodd;stroke:none;stroke-width:1;marker:none;visibility:visible;display:inline;overflow:visible"/><rect id="rect3055" width="9" height="2" x="-3.793" y="48.498" ry="0" transform="matrix(-0.707107,0.707107,0.707107,0.707107,0,0)" style="fill:#fff;fill-opacity:1;fill-rule:evenodd;stroke:none;stroke-width:1;marker:none;visibility:visible;display:inline;overflow:visible"/></g><rect id="rect3057" width="10" height="10" x="27.5" y="28.5" ry="0" style="fill:none;stroke:#ef2929;stroke-width:1;stroke-linecap:round;stroke-linejoin:round;stroke-miterlimit:4;stroke-opacity:1;stroke-dasharray:none;stroke-dashoffset:0;marker:none;visibility:visible;display:inline;overflow:visible"/></g><rect id="rect3059" width="7" height="7" x="-344.185" y="-252.071" ry="1.085" style="fill:url(#linearGradient3436);fill-opacity:1;fill-rule:evenodd;stroke:#a40000;stroke-width:1;stroke-linecap:round;stroke-linejoin:miter;stroke-miterlimit:4;stroke-opacity:1;stroke-dasharray:none;stroke-dashoffset:0;marker:none;visibility:visible;display:none;overflow:visible"/><path id="path3061" d="m -343.18544,-250.07075 1,-1 4,4 -1,1 -4,-4 z" style="fill:#fff;fill-opacity:1;fill-rule:evenodd;stroke:none;display:none"/><path id="path3063" d="m -342.18544,-246.07075 -1,-1 4,-4 1,1 -4,4 z" style="fill:#fff;fill-opacity:1;fill-rule:evenodd;stroke:none;display:none"/><g id="g3065" transform="translate(-410.68544,-256.57074)" style="display:none"><rect id="rect3067" width="9.001" height="9.001" x="70.499" y="32.5" ry=".993" style="fill:url(#linearGradient3355);fill-opacity:1;fill-rule:evenodd;stroke:#a40000;stroke-width:1;stroke-linecap:round;stroke-linejoin:miter;stroke-miterlimit:4;stroke-opacity:1;stroke-dasharray:none;stroke-dashoffset:0;marker:none;visibility:visible;display:inline;overflow:visible"/><rect id="rect3069" width="7" height="7" x="71.5" y="33.5" ry="0" style="fill:none;stroke:#ef2929;stroke-width:1;stroke-linecap:round;stroke-linejoin:round;stroke-miterlimit:4;stroke-opacity:1;stroke-dasharray:none;stroke-dashoffset:0;marker:none;visibility:visible;display:inline;overflow:visible"/><g id="g3071"><path id="path3073" d="m 72.5,35.5 1,-1 4,4 -1,1 -4,-4 z" style="fill:#fff;fill-opacity:1;fill-rule:evenodd;stroke:none;display:inline"/><path id="path3075" d="m 73.5,39.5 -1,-1 4,-4 1,1 -4,4 z" style="fill:#fff;fill-opacity:1;fill-rule:evenodd;stroke:none;display:inline"/></g></g><g id="g2877" transform="matrix(0.9561265,0,0,0.9561265,1.044962,2.1059284)"><rect id="rect2879" width="34" height="3.734" x="7" y="44.266" style="opacity:.40206185;fill:url(#linearGradient3584);fill-opacity:1;fill-rule:nonzero;stroke:none;stroke-width:1;marker:none;visibility:visible;display:inline;overflow:visible"/><path id="path2881" d="m 7,44.266291 c 0,0 0,3.733665 0,3.733665 -1.2409448,0.007 -3,-0.836525 -3,-1.867073 0,-1.030547 1.3848007,-1.866591 3,-1.866592 z" style="opacity:.40206185;fill:url(#radialGradient3586);fill-opacity:1;fill-rule:nonzero;stroke:none;stroke-width:1;marker:none;visibility:visible;display:inline;overflow:visible"/><path id="path2883" d="m 41,44.266291 c 0,0 0,3.733665 0,3.733665 1.240944,0.007 3,-0.836525 3,-1.867073 0,-1.030547 -1.384801,-1.866591 -3,-1.866592 z" style="opacity:.40206185;fill:url(#radialGradient3588);fill-opacity:1;fill-rule:nonzero;stroke:none;stroke-width:1;marker:none;visibility:visible;display:inline;overflow:visible"/></g><path id="rect2594" d="m 6.491959,2.4999997 c 8.020295,0 16.04059,0 24.060886,0 1.406933,0.4853797 8.965454,6.0151831 10.939195,9.8440003 0,11.718709 0,22.437333 0,34.156042 -11.666694,0 -23.333387,0 -35.000081,0 0,-15.000027 0,-29.000016 0,-44.0000423 z" style="fill:url(#linearGradient3601);fill-opacity:1;stroke:url(#linearGradient3603);stroke-width:.9999218;stroke-linecap:butt;stroke-linejoin:round;stroke-miterlimit:4;stroke-opacity:1;stroke-dasharray:none;stroke-dashoffset:0"/></g><path id="path2435" d="m 40.500039,10.236592 c 0,10.949037 0,22.31441 0,33.263447 -11.000026,0 -22.000052,0 -33.0000781,0 0,-14.014841 0,-28.029681 0,-42.0445208 7.5619931,0 15.3043341,0 22.8663281,0" style="opacity:.6;fill:none;stroke:url(#linearGradient2890);stroke-width:.9999218;stroke-linecap:butt;stroke-linejoin:round;stroke-miterlimit:4;stroke-opacity:1;stroke-dasharray:none;stroke-dashoffset:0;display:inline"/><g id="layer8" transform="matrix(0.99999843,0,0,1,7.6393678e-6,-1.9999997)"><flowRoot id="flowRoot2445" transform="translate(-55.269446,22.430383)" xml:space="preserve" style="font-size:4px;font-style:normal;font-variant:normal;font-weight:400;font-stretch:normal;fill:#000;fill-opacity:1;stroke:none;font-family:Arial;-inkscape-font-specification:Arial"><flowRegion id="flowRegion2447"><rect id="rect2449" width="63.762" height="77.499" x="-95.124" y="8.603"/></flowRegion><flowPara id="flowPara2451"/></flowRoot><flowRoot id="flowRoot2945" transform="translate(-70.939413,6.2493689)" xml:space="preserve" style="font-size:4px;font-style:normal;font-variant:normal;font-weight:400;font-stretch:normal;fill:#000;fill-opacity:1;stroke:none;font-family:Arial;-inkscape-font-specification:Arial"><flowRegion id="flowRegion2947"><rect id="rect2949" width="63.762" height="77.499" x="-95.124" y="8.603"/></flowRegion><flowPara id="flowPara2951"/></flowRoot><path id="text2748" d="m 13.685676,13.323445 c -0.364941,-0.08899 -1.16636,0.258497 -1.000881,-0.360914 0,-1.137029 0,-2.274058 0,-3.4110869 -0.540731,0.5380539 -1.592457,1.1463909 -1.292952,-0.035336 0.737646,-0.2079981 1.138508,-1.4354659 1.914827,-1.4357082 0.628449,-0.1893217 0.300088,0.5781669 0.379006,0.9383765 0,1.4348896 0,2.8697796 0,4.3046686 z m 0,9.118341 c -0.364941,-0.08899 -1.16636,0.258496 -1.000881,-0.360914 0,-1.137029 0,-2.274058 0,-3.411087 -0.540731,0.538054 -1.592457,1.14639 -1.292952,-0.03534 0.737646,-0.207998 1.138508,-1.435466 1.914827,-1.435708 0.628449,-0.189322 0.300088,0.578167 0.379006,0.938377 0,1.434889 0,2.869779 0,4.304669 z m 3.191418,-5.243046 c 1.383201,-0.04906 1.75634,1.565076 1.695442,2.667827 0.05944,1.101353 -0.312279,2.716765 -1.695442,2.664265 -1.392137,0.04021 -1.770882,-1.560822 -1.695441,-2.67495 -0.03152,-1.103413 0.281332,-2.71306 1.695441,-2.657142 z m 0,0.829912 c -1.048811,0.596201 -0.638731,2.35577 -0.451465,3.387321 1.265251,0.950002 1.157017,-1.560742 1.076569,-2.324106 -0.03562,-0.390727 -0.09653,-1.052611 -0.625104,-1.063215 z m -3.191418,13.531475 c -0.364941,-0.08899 -1.16636,0.258497 -1.000881,-0.360914 0,-1.137029 0,-2.274058 0,-3.411087 -0.540731,0.538054 -1.592457,1.146391 -1.292952,-0.03534 0.737646,-0.207998 1.138508,-1.435466 1.914827,-1.435708 0.628449,-0.189322 0.300088,0.578167 0.379006,0.938376 0,1.43489 0,2.86978 0,4.304669 z m 3.191418,-5.243046 c 1.383201,-0.04906 1.75634,1.565077 1.695442,2.667828 0.05944,1.101353 -0.312279,2.716765 -1.695442,2.664265 -1.392137,0.04021 -1.770882,-1.560822 -1.695441,-2.674951 -0.03152,-1.103412 0.281332,-2.71306 1.695441,-2.657141 l 0,-10e-7 z m 0,0.829913 c -1.048811,0.5962 -0.638731,2.355769 -0.451465,3.38732 1.265251,0.950003 1.157017,-1.560741 1.076569,-2.324106 -0.03562,-0.390727 -0.09653,-1.05261 -0.625104,-1.063215 l 0,1e-6 z m 4.929602,4.413133 c -0.36494,-0.08899 -1.166359,0.258497 -1.000879,-0.360914 0,-1.137029 0,-2.274058 0,-3.411087 -0.540732,0.538054 -1.592458,1.146391 -1.292952,-0.03534 0.737646,-0.207999 1.138507,-1.435466 1.914827,-1.435708 0.628448,-0.189322 0.300086,0.578167 0.379004,0.938376 0,1.43489 0,2.86978 0,4.304669 z m -8.12102,9.11834 c -0.364941,-0.08899 -1.16636,0.258496 -1.000881,-0.360914 0,-1.137029 0,-2.274057 0,-3.411086 -0.540733,0.538053 -1.592457,1.146389 -1.292952,-0.03534 0.737644,-0.207998 1.138509,-1.435465 1.914827,-1.435708 0.628449,-0.189322 0.300088,0.578167 0.379006,0.938377 0,1.434889 0,2.869779 0,4.304669 z m 3.191418,-5.243046 c 1.383201,-0.04906 1.75634,1.565076 1.695442,2.667827 0.05944,1.101353 -0.312279,2.716765 -1.695442,2.664265 -1.392137,0.04021 -1.770882,-1.560822 -1.695441,-2.67495 -0.03152,-1.103413 0.281332,-2.71306 1.695441,-2.657142 z m 0,0.82991 c -1.048811,0.596205 -0.638731,2.355771 -0.451465,3.387323 1.265251,0.950001 1.157017,-1.560742 1.076569,-2.324106 -0.03562,-0.390728 -0.09653,-1.052611 -0.625104,-1.063215 l 0,-2e-6 z m 4.929602,4.413136 c -0.36494,-0.08899 -1.166359,0.258496 -1.000879,-0.360914 0,-1.137029 0,-2.274057 0,-3.411086 -0.540733,0.538053 -1.592458,1.146389 -1.292952,-0.03534 0.737643,-0.207999 1.138508,-1.435465 1.914827,-1.435708 0.628448,-0.189321 0.300086,0.578168 0.379004,0.938377 0,1.434889 0,2.869779 0,4.304669 z m 3.19142,-5.243046 c 1.3832,-0.04906 1.756339,1.565076 1.695441,2.667827 0.05944,1.101353 -0.312279,2.716765 -1.695441,2.664265 -1.392138,0.04021 -1.770884,-1.560821 -1.695442,-2.67495 -0.03151,-1.103413 0.281332,-2.71306 1.695442,-2.657142 z m 0,0.82991 c -1.048811,0.596205 -0.638732,2.355771 -0.451466,3.387323 1.265252,0.950001 1.157017,-1.560742 1.076569,-2.324106 -0.03562,-0.390728 -0.09653,-1.052611 -0.625103,-1.063215 l 0,-2e-6 z" style="font-size:7.29467201px;font-style:normal;font-variant:normal;font-weight:700;font-stretch:normal;fill:#7a7a7a;fill-opacity:1;stroke:none;font-family:Arial;-inkscape-font-specification:Sans Bold"/><path id="path4191" d="M 7.361707,46 C 7.162407,46 7,45.824541 7,45.60922 L 7,3.4051687 c 0,-0.215708 0.162407,-0.390777 0.361707,-0.390777 7.483185,0.108015 15.775881,-0.161575 23.249974,0.02689 l 10.282767,8.8660253 0.10598,33.701908 c 0,0.215321 -0.162045,0.39078 -0.361708,0.39078 l -33.277013,0 z" style="fill:url(#radialGradient2965);fill-opacity:1"/><path id="path12038" d="m 28.617256,0.9212581 c 4.282522,0 2.15325,8.4831709 2.15325,8.4831709 0,0 10.357642,-1.8023467 10.357642,2.818745 0,-2.609724 -11.302304,-10.7285959 -12.510892,-11.3019159 z" transform="matrix(1.0000126,0,0,1,-8.8e-5,1.9999997)" style="opacity:.4;fill:#000;fill-opacity:1;fill-rule:evenodd;stroke:none;display:inline;filter:url(#filter3248)"/><path id="path4474" d="m 28.617528,2.9212577 c 3.186533,0 2.33579,7.6618783 2.33579,7.6618783 0,0 10.17526,-0.9810541 10.17526,3.640038 0,-1.125939 0.08591,-1.932245 -0.133779,-2.283593 -1.578333,-2.5241795 -8.395622,-8.1884013 -10.857437,-8.9307893 -0.184224,-0.05555 -0.592711,-0.08753 -1.519834,-0.08753 z" style="fill:url(#linearGradient2633);fill-opacity:1;fill-rule:evenodd;stroke:none;display:inline"/></g></svg>