<svg xmlns="http://www.w3.org/2000/svg" xmlns:svg="http://www.w3.org/2000/svg" id="svg1336" width="90" height="90" version="1.0"><defs id="defs1338"><linearGradient id="linearGradient8721"><stop id="stop12145" offset="0" style="stop-color:red;stop-opacity:1"/><stop style="stop-color:#ffe0e0;stop-opacity:1" id="stop8725" offset="1"/></linearGradient><linearGradient id="linearGradient4073"><stop id="stop4075" offset="0" style="stop-color:#fff;stop-opacity:1"/><stop id="stop4077" offset="1" style="stop-color:#fff;stop-opacity:0"/></linearGradient><linearGradient id="linearGradient6848"><stop id="stop6850" offset="0" style="stop-color:#00f;stop-opacity:1"/><stop id="stop6852" offset="1" style="stop-color:#e0e0ff;stop-opacity:1"/></linearGradient><linearGradient id="linearGradient6854"><stop id="stop6856" offset="0" style="stop-color:#ffffe0;stop-opacity:1"/><stop id="stop6858" offset="1" style="stop-color:#ff0;stop-opacity:1"/></linearGradient></defs><metadata id="metadata1342"/><g id="layer1" transform="translate(7.600007,-268.296)"><path id="rect1393" d="M 4.8677184,306.49378 H 23.61648 c 4.137119,0 7.467723,3.52401 7.467723,7.90137 v 19.83747 c 0,4.37735 -3.330604,7.90136 -7.467723,7.90136 H 4.8677184 c -4.137119,0 -7.4677255,-3.52401 -7.4677255,-7.90136 v -19.83747 c 0,-4.37736 3.3306065,-7.90137 7.4677255,-7.90137 z" style="fill:#f55;fill-opacity:1;fill-rule:nonzero;stroke:none;stroke-width:7.33253384;marker-start:none"/><path style="display:inline;fill:#2a7fff;fill-opacity:1;stroke:none;stroke-width:2.44790816;stroke-linecap:butt;stroke-linejoin:round;stroke-miterlimit:20;stroke-dasharray:none;stroke-dashoffset:0;stroke-opacity:.50196078;marker-start:none" id="path41636" d="m 26.784096,284.45802 h 18.727092 c 3.558427,0 6.399478,3.00782 6.399478,6.77271 v 19.83738 c 0,3.76628 -2.840504,6.76942 -6.399478,6.76942 H 26.762503 c -3.55899,0 -6.399478,-3.00455 -6.399478,-6.76942 v -19.84418 c 0,-3.76573 2.861559,-6.76591 6.421071,-6.76591 z"/><path id="path5936" d="m 51.183508,300.25674 h 18.748761 c 4.13712,0 7.467724,3.52402 7.467724,7.90137 v 19.83747 c 0,4.37735 -3.330604,7.90136 -7.467724,7.90136 H 51.183508 c -4.13712,0 -7.467725,-3.52401 -7.467725,-7.90136 v -19.83747 c 0,-4.37735 3.330605,-7.90137 7.467725,-7.90137 z" style="display:inline;fill:#fd5;fill-opacity:1;fill-rule:nonzero;stroke:none;stroke-width:7.38684177;marker-start:none"/></g></svg>