<svg xmlns="http://www.w3.org/2000/svg" xmlns:svg="http://www.w3.org/2000/svg" id="svg3016" width="32" height="32" version="1.1"><metadata id="metadata3021"/><g id="layer1" transform="translate(0,-1020.3622)"><rect style="fill:#1190e6;fill-opacity:1;stroke:none" id="rect3024" width="15" height="15" x="10" y="1030.362"/><rect style="fill:#6eca60;fill-opacity:1;stroke:none" id="rect3024-0" width="15" height="15" x="5.4" y="1025.962"/><rect style="fill:#ffd748;fill-opacity:1;stroke:none" id="rect3024-2" width="15" height="15" x="2" y="1022.362"/><g id="g836" transform="translate(55.624803,-7.0908)"><path style="fill:#95a5a6;stroke-width:.78038377" id="path6" d="m -38.012399,1044.2149 v 7.6191 c 0,3.2 2.903257,6.0952 7.193798,7.619 4.290701,-1.5238 7.193798,-4.419 7.193798,-7.619 v -7.6191 z"/><path style="fill:#ecf0f1;stroke-width:.78038377" id="path8" d="m -38.012399,1043.453 v 7.6191 c 0,3.2 2.903257,6.0952 7.193798,7.619 4.290701,-1.5238 7.193798,-4.419 7.193798,-7.619 v -7.6191 z"/><path style="fill:#bdc3c7;stroke-width:.78038377" id="path10" d="m -38.012399,1043.453 v 7.6191 c 0,3.2 2.903257,6.0952 7.193798,7.619 v -15.2381 z"/><path style="fill:#c0392b;stroke-width:.78038377" id="path12" d="m -36.413777,1044.9768 v 6.0953 c 0,2.5905 2.258133,4.8762 5.595176,6.0952 3.337123,-1.219 5.595176,-3.5047 5.595176,-6.0952 v -6.0953 z"/><path style="fill:#e74c3c;stroke-width:.78038377" id="path14" d="m -30.818601,1044.9768 v 12.1905 c 3.337123,-1.219 5.595176,-3.5047 5.595176,-6.0952 v -6.0953 z"/><path style="fill:#ecf0f1;stroke-width:.78038377" id="path18" d="m -33.091682,1047.3387 -1.123991,1.0667 2.273241,2.2095 -2.273241,2.1334 1.123991,1.0666 2.273081,-2.1333 2.27324,2.1333 1.123831,-1.0666 -2.27324,-2.1334 2.27324,-2.1333 -1.149409,-1.1429 -2.247662,2.2096 z"/></g></g></svg>