<svg xmlns="http://www.w3.org/2000/svg" xmlns:svg="http://www.w3.org/2000/svg" id="svg3745" width="24" height="24" version="1.1"><metadata id="metadata9"/><path style="opacity:.9;fill:#ccc;fill-opacity:1;stroke:#ccc;stroke-width:1.30334103;stroke-opacity:1" id="path3765" d="M 15.019724,16.353025 C 12.975522,18.380681 9.6746299,18.367267 7.6469746,16.323065 5.6193194,14.278863 5.632733,10.977971 7.6769347,8.9503165 7.7544163,8.8734611 7.8342918,8.7990599 7.9164435,8.7272187 l 3.4318855,3.9244523 z m -6.2780767,0.208669 -1.303341,-1.303341 -6.516705,6.516705 1.303341,1.303341 z"/><path style="opacity:.9;fill:#ccc;fill-opacity:1;stroke:#ccc;stroke-width:1.30334103;stroke-opacity:1" id="path3767" d="m 8.980276,7.6469755 c 2.044202,-2.0276558 5.345094,-2.0142418 7.372748,0.02996 2.027656,2.0442017 2.014242,5.3450935 -0.02996,7.3727485 -0.07748,0.07686 -0.157357,0.151257 -0.239509,0.223098 L 12.65167,11.34833 Z m 14.098122,-5.4220328 -1.303341,-1.303341 -6.516705,6.516705 1.303341,1.303341 z"/></svg>