<svg xmlns="http://www.w3.org/2000/svg" xmlns:svg="http://www.w3.org/2000/svg" id="svg4144" width="32" height="32" version="1.1" viewBox="0 0 32 32"><title id="title4164">Function</title><metadata id="metadata4149"/><g id="layer1" transform="translate(0,-1020.3622)"><path style="opacity:1;fill:#aea79f;fill-opacity:1;fill-rule:evenodd;stroke:#aea79f;stroke-width:2;stroke-linecap:round;stroke-linejoin:round;stroke-miterlimit:4;stroke-dasharray:none;stroke-opacity:1" id="path1999" d="m 23.370668,1030.1395 a 6.2225399,6.2225399 0 0 0 -6.222656,6.2228 6.2225399,6.2225399 0 0 0 6.222656,6.2226 6.2225399,6.2225399 0 0 0 6.222656,-6.2226 6.2225399,6.2225399 0 0 0 -6.222656,-6.2228 z m 0,2.1212 a 4.1012199,4.1012187 0 0 1 4.101562,4.1016 4.1012199,4.1012187 0 0 1 -4.101562,4.1014 4.1012199,4.1012187 0 0 1 -4.101563,-4.1014 4.1012199,4.1012187 0 0 1 4.101563,-4.1016 z"/><rect style="opacity:1;fill:#aea79f;fill-opacity:1;fill-rule:evenodd;stroke:#aea79f;stroke-width:1;stroke-linecap:round;stroke-linejoin:round;stroke-miterlimit:4;stroke-dasharray:none;stroke-opacity:1" id="rect2003" width="4.525" height="5.91" x="2.907" y="1034.857" rx="0" ry="0"/><rect id="rect2018" width="1.98" height="12.769" x="-1036.836" y="5.452" rx="0" ry="0" transform="rotate(-90)" style="opacity:1;fill:#aea79f;fill-opacity:1;fill-rule:evenodd;stroke:#aea79f;stroke-width:1;stroke-linecap:round;stroke-linejoin:round;stroke-miterlimit:4;stroke-dasharray:none;stroke-opacity:1"/></g></svg>