<svg xmlns="http://www.w3.org/2000/svg" xmlns:svg="http://www.w3.org/2000/svg" id="svg6" width="48" height="48" version="1.1" viewBox="0 0 48 48"><metadata id="metadata12"/><path id="path2" d="M 34.305317,30.188679 H 32.123499 L 31.368782,29.433963 C 34.058319,26.319039 35.67753,22.271012 35.67753,17.838765 35.67753,7.9862779 27.691252,0 17.838765,0 7.986278,0 0,7.9862779 0,17.838765 0,27.691252 7.986278,35.67753 17.838765,35.67753 c 4.432247,0 8.480274,-1.619211 11.595198,-4.295025 l 0.754716,0.754716 v 2.168096 L 43.910807,48 48,43.910807 Z m -16.466552,0 c -6.819898,0 -12.349914,-5.530017 -12.349914,-12.349914 0,-6.819898 5.530016,-12.3499142 12.349914,-12.3499142 6.819897,0 12.349914,5.5300162 12.349914,12.3499142 0,6.819897 -5.530017,12.349914 -12.349914,12.349914 z" style="fill:#ccc;fill-opacity:1;stroke-width:1.37221277"/><path id="path4" fill="none" d="M0 0h48v48H0z"/></svg>