<svg xmlns="http://www.w3.org/2000/svg" xmlns:svg="http://www.w3.org/2000/svg" id="svg6" width="48" height="48" version="1.1" viewBox="0 0 48 48"><metadata id="metadata12"/><path id="path2" d="M 24,6.5454545 V 0 L 15.272728,8.7272727 24,17.454545 v -6.545454 c 7.232727,0 13.090909,5.858182 13.090909,13.090909 0,2.214545 -0.556364,4.287273 -1.516364,6.12 l 3.185454,3.185455 C 40.45091,30.6 41.454545,27.425455 41.454545,24 41.454545,14.356364 33.643636,6.5454545 24,6.5454545 Z m 0,30.5454545 c -7.232728,0 -13.090909,-5.858182 -13.090909,-13.090909 0,-2.214545 0.556364,-4.287273 1.516364,-6.12 L 9.2399995,14.694545 C 7.5490909,17.4 6.5454545,20.574545 6.5454545,24 6.5454545,33.643636 14.356364,41.454545 24,41.454545 V 48 L 32.727272,39.272727 24,30.545455 Z" style="fill:#ccc;fill-opacity:1;stroke-width:1.09090912"/><path id="path4" fill="none" d="M0 0h48v48H0z"/></svg>