<svg xmlns="http://www.w3.org/2000/svg" xmlns:svg="http://www.w3.org/2000/svg" id="Слой_1" width="32" height="32" enable-background="new 0 0 32 32" version="1.1" viewBox="0 0 32 32" xml:space="preserve"><metadata id="metadata20"/><path id="Close" d="m 17.746695,16.01678 9.86362,-9.8207704 c 0.472889,-0.4686255 0.472889,-1.2272962 0,-1.6947236 -0.471691,-0.468626 -1.237891,-0.468626 -1.709582,0 l -9.855241,9.81238 -9.9462255,-9.9586009 c -0.4716914,-0.4734201 -1.2378909,-0.4734201 -1.7095825,0 -0.4716915,0.4746186 -0.4716915,1.2428774 0,1.7162972 l 9.939043,9.9514097 -9.9749586,9.931034 c -0.4716915,0.468626 -0.4716915,1.227297 0,1.694725 0.4716916,0.468625 1.237891,0.468625 1.7095826,0 l 9.966578,-9.922646 9.90672,9.919049 c 0.47169,0.473421 1.237891,0.473421 1.709581,0 0.471693,-0.474618 0.471693,-1.242877 0,-1.716298 z" style="fill:#dd4814;fill-opacity:1;stroke-width:1.19785893"/></svg>