<svg xmlns="http://www.w3.org/2000/svg" xmlns:svg="http://www.w3.org/2000/svg" id="Layer_1" width="50" height="50" enable-background="new 0 0 50 50" version="1.1" viewBox="0 0 50 50" xml:space="preserve"><metadata id="metadata13"/><g id="g5583" style="fill:#999;stroke:#999;opacity:1;stroke-opacity:1;fill-opacity:1"><path style="fill:#999;fill-opacity:1;stroke:#999;stroke-opacity:1" id="path4" fill="none" stroke="#000" stroke-linecap="round" stroke-miterlimit="10" stroke-width="2" d="M46,15v-4 c0-1.104-0.896-2-2-2c0,0-24.648,0-26,0c-1.469,0-2.484-4-4-4H3C1.896,5,1,5.896,1,7v4v29v4c0,1.104,0.896,2,2,2h39 c1.104,0,2-0.896,2-2"/><path style="fill:#999;fill-opacity:1;stroke:#999;stroke-opacity:1" id="path6" fill="none" stroke="#000" stroke-linecap="round" stroke-miterlimit="10" stroke-width="2" d="M1,44l5-27 c0-1.104,0.896-2,2-2h39c1.104,0,2,0.896,2,2l-5,27"/></g></svg>