<svg xmlns="http://www.w3.org/2000/svg" xmlns:svg="http://www.w3.org/2000/svg" style="clip-rule:evenodd;fill-rule:evenodd;stroke-linejoin:round;stroke-miterlimit:1.41420996" id="svg6" width="42" height="42" version="1.1" viewBox="0 0 49 49" xml:space="preserve"><metadata id="metadata12"/><rect style="fill:none" id="rect2" width="48" height="48" x=".311" y=".637"/><path style="fill:#707070;stroke-width:1.36111116" id="path4" d="M 46.277778,43.555556 C 47.780444,43.555556 49,44.775111 49,46.277778 49,47.781806 47.780444,49 46.277778,49 37.700056,49 11.298583,49 2.7222222,49 1.2181944,49 0,47.781806 0,46.277778 c 0,-1.502667 1.2181944,-2.722222 2.7222222,-2.722222 8.5763608,0 34.9778338,0 43.5555558,0 z m 0,-10.888889 c 0.721389,0 1.414194,0.287194 1.924611,0.797611 C 48.712806,33.974694 49,34.6675 49,35.388889 c 0,0.72275 -0.287194,1.415555 -0.797611,1.925972 -0.510417,0.510417 -1.203222,0.79625 -1.924611,0.79625 -5.215778,0 -16.562,0 -21.777778,0 -0.72275,0 -1.414194,-0.285833 -1.924611,-0.79625 -0.510417,-0.510417 -0.797611,-1.203222 -0.797611,-1.925972 0,-0.721389 0.287194,-1.414195 0.797611,-1.924611 0.510417,-0.510417 1.201861,-0.797611 1.924611,-0.797611 5.215778,0 16.562,0 21.777778,0 z M 10.1185,23.730972 c 0.204167,0.204167 0.319861,0.480472 0.319861,0.769028 0,0.289917 -0.115694,0.566222 -0.319861,0.770389 C 8.414389,26.9745 4.283417,31.106833 1.8592778,33.530972 1.5475833,33.842667 1.0793611,33.935222 0.6723889,33.766444 0.2654167,33.597667 0,33.201583 0,32.760583 0,28.572444 0,20.428917 0,16.240778 c 0,-0.441 0.2654167,-0.837084 0.6723889,-1.005861 0.4069722,-0.168778 0.8751944,-0.07622 1.1868889,0.235472 2.4241392,2.424139 6.5551112,6.556472 8.2592222,8.260583 z m 36.159278,-1.953194 c 0.721389,0 1.414194,0.287194 1.924611,0.797611 C 48.712806,23.085806 49,23.778611 49,24.5 c 0,0.72275 -0.287194,1.415556 -0.797611,1.925972 -0.510417,0.510417 -1.203222,0.79625 -1.924611,0.79625 -5.215778,0 -16.562,0 -21.777778,0 -0.72275,0 -1.414194,-0.285833 -1.924611,-0.79625 C 22.064972,25.915556 21.777778,25.22275 21.777778,24.5 c 0,-0.721389 0.287194,-1.414194 0.797611,-1.924611 0.510417,-0.510417 1.201861,-0.797611 1.924611,-0.797611 5.215778,0 16.562,0 21.777778,0 z m 0,-10.888889 c 0.721389,0 1.414194,0.287194 1.924611,0.797611 C 48.712806,12.196917 49,12.889722 49,13.611111 c 0,0.72275 -0.287194,1.415556 -0.797611,1.925972 -0.510417,0.510417 -1.203222,0.79625 -1.924611,0.79625 -5.215778,0 -16.562,0 -21.777778,0 -0.72275,0 -1.414194,-0.285833 -1.924611,-0.79625 -0.510417,-0.510416 -0.797611,-1.203222 -0.797611,-1.925972 0,-0.721389 0.287194,-1.414194 0.797611,-1.924611 0.510417,-0.510417 1.201861,-0.797611 1.924611,-0.797611 5.215778,0 16.562,0 21.777778,0 z M 46.277778,0 C 47.780444,0 49,1.2195556 49,2.7222222 49,4.22625 47.780444,5.4444444 46.277778,5.4444444 c -8.577722,0 -34.979195,0 -43.5555558,0 C 1.2181944,5.4444444 0,4.22625 0,2.7222222 0,1.2195556 1.2181944,0 2.7222222,0 11.298583,0 37.700056,0 46.277778,0 Z"/></svg>