<svg xmlns="http://www.w3.org/2000/svg" xmlns:svg="http://www.w3.org/2000/svg" id="svg8" width="32" height="32" version="1.1" viewBox="0 0 8.467 8.467"><metadata id="metadata5"/><g id="layer1" transform="translate(0,-288.53332)"><path style="opacity:1;fill:#aad400;fill-opacity:1;fill-rule:evenodd;stroke:#000;stroke-width:2.00000024;stroke-linecap:butt;stroke-linejoin:miter;stroke-miterlimit:20;stroke-dasharray:none;stroke-opacity:1" id="path831" d="M 11.169922 9 C 9.9676859 9 9 9.9676542 9 11.169922 L 9 23 L 20.830078 23 C 22.032314 23 23 22.032384 23 20.830078 L 23 9 L 11.169922 9 z" transform="matrix(0.26458333,0,0,0.26458333,0,288.53332)"/><path style="opacity:1;fill:none;fill-opacity:1;fill-rule:evenodd;stroke:#aad400;stroke-width:.52916665;stroke-linecap:butt;stroke-linejoin:miter;stroke-miterlimit:20;stroke-dasharray:none;stroke-opacity:1" id="path836" d="m 2.9554213,290.91457 h 4.6724895 c 0.3180917,0 0.5741725,0.25607 0.5741725,0.57417 v 4.67249 c 0,0.3181 -0.2560808,0.57417 -0.5741725,0.57417 H 2.9554213 c -0.3180916,0 -0.5741713,-0.25607 -0.5741713,-0.57417 v -4.67249 c 0,-0.3181 0.2560797,-0.57417 0.5741713,-0.57417 z"/><path id="path848" d="M 0.83875465,288.7979 H 5.5112441 c 0.3180917,0 0.5741725,0.25607 0.5741725,0.57417 v 4.67249 c 0,0.3181 -0.2560808,0.57417 -0.5741725,0.57417 H 0.83875465 c -0.3180916,0 -0.5741713,-0.25607 -0.5741713,-0.57417 v -4.67249 c 0,-0.3181 0.2560797,-0.57417 0.5741713,-0.57417 z" style="opacity:1;fill:none;fill-opacity:1;fill-rule:evenodd;stroke:#aad400;stroke-width:.5291667;stroke-linecap:butt;stroke-linejoin:miter;stroke-miterlimit:20;stroke-dasharray:none;stroke-opacity:1"/></g></svg>