<svg xmlns="http://www.w3.org/2000/svg" xmlns:svg="http://www.w3.org/2000/svg" id="Layer_1" width="32" height="32" enable-background="new 0 0 128 128" version="1.1" viewBox="0 0 32 32" xml:space="preserve"><metadata id="metadata17"/><path id="path9" d="m 8,10 c 1.1055,0 2,0.8945 2,2 0,1.1055 -0.8945,2 -2,2 C 6.8945,14 6,13.1055 6,12 6,10.8945 6.8945,10 8,10 M 8,8 c -2.206,0 -4,1.794 -4,4 0,2.206 1.794,4 4,4 2.206,0 4,-1.794 4,-4 C 12,9.794 10.206,8 8,8 Z" style="fill:#ffa000;stroke-width:.25"/><path id="path11" d="m 7,24 c -0.25575,0 -0.51175,-0.09775 -0.707,-0.293 -0.39075,-0.39075 -0.39075,-1.0235 0,-1.414 l 6,-6 c 0.30675,-0.30475 0.7715,-0.38 1.15425,-0.1875 l 3.254,1.627 5.499,-7.332 C 22.3935,10.14075 22.714,9.98925 23.0275,10 c 0.32525,0.0098 0.625,0.17475 0.80475,0.44525 l 4,6 c 0.30675,0.46 0.1825,1.08 -0.27725,1.38675 -0.461,0.30375 -1.082,0.18175 -1.38675,-0.27725 l -3.216,-4.82425 -5.1525,6.869 c -0.289,0.38775 -0.8145,0.51175 -1.247,0.295 L 13.19725,18.21675 7.707,23.707 C 7.51175,23.90225 7.25575,24 7,24 Z" style="fill:#e6e6e6;stroke-width:.25"/></svg>