<svg xmlns="http://www.w3.org/2000/svg" xmlns:svg="http://www.w3.org/2000/svg" id="Lager_1" width="32" height="32" version="1.1" viewBox="0 0 32 32" xml:space="preserve"><metadata id="metadata17"/><g id="g3" transform="matrix(0.32,0,0,0.32,-4.48,-4.48)"><g id="g5"><g id="g7"><circle style="fill:#f0652a" id="circle9" cx="64" cy="64" r="50"/></g></g><path style="fill:#fff" id="path11" d="M 40.2,39 44.5,87.5 63.9,93 83.4,87.5 87.8,39 40.2,39 Z m 38.2,15.8 -22.8,0 0.5,6.1 21.7,0 -1.7,18.4 -12.1,3.3 0,0 -0.1,0 -12.2,-3.4 -0.7,-9.3 5.9,0 0.4,4.7 6.6,1.8 6.6,-1.8 0.7,-7.7 -20.5,0 -1.6,-18 29.8,0 -0.5,5.9 z"/></g></svg>