<svg xmlns="http://www.w3.org/2000/svg" xmlns:svg="http://www.w3.org/2000/svg" id="Layer_1" width="50" height="50" enable-background="new 0 0 50 50" version="1.1" viewBox="0 0 50 50" xml:space="preserve"><metadata id="metadata13"/><g id="g818" transform="matrix(0.97547862,0,0,1.1420288,0.6148493,-4.1217344)" style="fill:none;stroke:#ccc;stroke-width:2.7817347;stroke-miterlimit:4;stroke-dasharray:none;stroke-opacity:1"><path style="fill:none;fill-opacity:1;stroke:#ccc;stroke-width:2.7817347;stroke-linecap:round;stroke-miterlimit:4;stroke-dasharray:none;stroke-opacity:1" id="path4" stroke-miterlimit="10" d="M 46,15 V 11 C 46,9.896 45.104,9 44,9 44,9 19.352,9 18,9 16.531,9 15.516,5 14,5 H 3 C 1.896,5 1,5.896 1,7 v 4 29 4 c 0,1.104 0.896,2 2,2 h 39 c 1.104,0 2,-0.896 2,-2"/><path style="fill:none;fill-opacity:1;stroke:#ccc;stroke-width:2.7817347;stroke-linecap:round;stroke-miterlimit:4;stroke-dasharray:none;stroke-opacity:1" id="path6" stroke-miterlimit="10" d="M 1,44 6,17 c 0,-1.104 0.896,-2 2,-2 h 39 c 1.104,0 2,0.896 2,2 l -5,27"/></g></svg>