<svg xmlns="http://www.w3.org/2000/svg" xmlns:svg="http://www.w3.org/2000/svg" id="rewind" width="96" height="96" enable-background="new 0 0 96 96" version="1.1" viewBox="0 0 96 96" xml:space="preserve"><metadata id="metadata11"/><g id="g820" transform="matrix(1.5610518,0,0,1.5610518,-24.912046,-26.930486)" style="fill:#707070"><path id="path2" d="M 25.615,48 48.242,25.373 c 1.562,-1.562 1.562,-4.095 0,-5.657 -1.562,-1.562 -4.094,-1.562 -5.656,0 L 17.13,45.171 c -1.562,1.562 -1.562,4.095 0,5.657 l 25.456,25.456 c 1.562,1.562 4.095,1.562 5.656,0 1.562,-1.562 1.562,-4.095 0,-5.657 z" style="fill:#707070"/><path id="path4" d="M 53.656,48 76.284,25.373 c 1.562,-1.562 1.562,-4.095 0,-5.657 -1.562,-1.562 -4.095,-1.562 -5.657,0 L 45.172,45.171 c -1.562,1.562 -1.562,4.095 0,5.657 l 25.455,25.456 c 1.562,1.562 4.095,1.562 5.657,0 1.562,-1.562 1.562,-4.095 0,-5.657 z" style="fill:#707070"/></g></svg>