<svg xmlns="http://www.w3.org/2000/svg" xmlns:svg="http://www.w3.org/2000/svg" id="Layer_1" width="24" height="24" enable-background="new 0 0 24 24" version="1.1" viewBox="0 0 24 24" xml:space="preserve"><metadata id="metadata13"/><path id="path2" d="M 13,13 V 8 H 10.1 C 10.1,8 9.4,8.1 9.2,7.6 9,7.1 9.5,6.6 9.5,6.6 L 16.1,0 22.6,6.5 c 0,0 0.7,0.5 0.5,1.1 -0.2,0.6 -1,0.4 -1,0.4 H 19 v 5 c 0,0.6 -0.3,1 -0.9,1 h -4 C 13.6,14 13,13.6 13,13 Z m 2,-1 h 2 V 6 h 2.1 L 16.2,3 13.1,6 H 15 Z" style="fill:#ccc;fill-opacity:1"/><path id="path4" d="M 1.1,16.4 C 1.3,15.9 2.1,16 2.1,16 H 5 v -5 c 0,-0.6 0.5,-1 1,-1 h 4 c 0.6,0 1,0.4 1,1 v 5 h 3.1 c 0,0 0.7,-0.1 0.9,0.4 0.2,0.5 -0.3,1 -0.3,1 L 8,24 1.5,17.5 C 1.6,17.5 0.9,17 1.1,16.4 Z M 8,21 11.1,18 H 9 V 12 H 7 v 6 H 5.1 Z" style="fill:#ccc;fill-opacity:1"/></svg>