<svg xmlns="http://www.w3.org/2000/svg" xmlns:svg="http://www.w3.org/2000/svg" id="Layer_1" data-name="Layer 1" version="1.1" viewBox="0 0 32 32"><metadata id="metadata13"/><defs id="defs4"><style id="style2">.cls-1{fill:#ba63c6}</style></defs><title id="title6"/><path id="path8" d="M 3.4776748,2.9954182e-4 A 2.2844108,2.2844108 0 0 1 5.7620857,2.2847105 V 14.84897 c 0,3.118221 1.4506009,4.568821 4.5688213,4.568821 H 24.128749 L 21.844338,18.275586 18.90887,15.340118 a 2.2856812,2.2856812 0 0 1 3.232441,-3.232441 l 7.995438,7.995438 a 2.2844108,2.2844108 0 0 1 0,3.232441 l -7.995438,7.995438 A 2.2856812,2.2856812 0 0 1 18.90887,28.098553 l 3.083955,-2.969734 2.215878,-1.142206 H 10.330907 c -5.6310723,0 -9.137643,-3.506571 -9.137643,-9.137643 V 2.2847105 A 2.2844108,2.2844108 0 0 1 3.4776748,2.9954182e-4 Z" class="cls-1" style="fill:#dd4814;fill-opacity:1;stroke-width:1.14220548"/></svg>