<svg xmlns="http://www.w3.org/2000/svg" xmlns:svg="http://www.w3.org/2000/svg" id="svg822" width="32" height="32" version="1.1" viewBox="0 0 8.467 8.467"><defs id="defs816"><style id="style2"/></defs><metadata id="metadata819"/><g id="layer1" transform="translate(0,-288.53332)"><path style="clip-rule:evenodd;fill:#c8beb7;fill-rule:evenodd;stroke-width:.2887184;fill-opacity:1" id="path4557" d="m 8.1635127,296.50852 c -0.4042058,0.40421 -1.0682581,0.40421 -1.4724638,0 l -3.060415,-3.06041 1.3569764,-1.35698 0.1154873,-0.11548 3.0604151,3.06041 c 0.4042056,0.40421 0.4042056,1.06826 0,1.47246 z m -3.0604151,-4.0998 c -0.173231,0.17323 -0.8372832,0.83728 -1.0105143,1.01051 0.057744,0.0577 0.3175902,0.31759 0.6351805,0.63519 l 1.0105144,-1.01052 c -0.3175903,-0.31759 -0.5774369,-0.57743 -0.6351806,-0.63518 z m 2.8294403,2.85832 -2.0787723,-2.07877 -1.0105145,1.01051 c 0.8372833,0.83728 2.0787724,2.07877 2.0787724,2.07877 0.2887185,0.28872 0.7217961,0.28872 1.0105144,0 0.2887184,-0.28873 0.2887184,-0.75067 0,-1.01051 z m -3.3780052,-4.38853 -0.3753338,0.37534 0.6929241,0.69292 -1.2414891,1.2415 -0.721796,-0.7218 v 0 c -0.2598465,-0.14436 -0.6063086,-0.1155 -0.8372833,0.11548 -0.173231,0.17323 -0.2309748,0.40421 -0.173231,0.63518 0.057744,0.14437 0.028871,0.3176 -0.086616,0.43308 -0.1443591,0.14436 -0.4042056,0.14436 -0.5774367,0 L 0.10826918,292.5242 c -0.1443592,-0.14435 -0.1443592,-0.40419 0,-0.57743 0.1154873,-0.11549 0.3175903,-0.14435 0.4619494,-0.0577 v 0 c 0.202103,0.0289 0.43307762,-0.0289 0.60630872,-0.17323 0.2309747,-0.23098 0.2598466,-0.57744 0.086616,-0.83728 l 0.057744,-0.0577 v 0 l 1.068258,-1.06826 0.1154873,-0.11548 0.375334,-0.37534 c 0.2309746,0.1155 0.4330775,0.0577 0.6351804,-0.0866 0.2021028,-0.14436 0.7506678,-0.54857 1.6745666,-0.43308 0.9527707,0.0866 1.5013357,0.83728 1.5013357,0.83728 l -0.2021029,0.2021 c -2.51185,-0.31759 -1.9344132,1.09714 -1.9344132,1.09714 z"/><g style="fill:red;fill-opacity:1" id="g4544" transform="matrix(0.08669542,0,0,0.08669542,0.36243206,292.32908)"><polygon style="fill:red;fill-opacity:1" id="polygon4542" points="25.995 13.855 38.265 1.585 50.415 13.735 38.145 26.005 50.415 38.265 38.265 50.415 25.995 38.145 13.735 50.415 1.585 38.265 13.855 26.005 1.585 13.735 13.735 1.585"/></g></g></svg>