<svg xmlns="http://www.w3.org/2000/svg" xmlns:svg="http://www.w3.org/2000/svg" id="svg14" width="32" height="32" version="1.1" viewBox="0 0 32 32"><metadata id="metadata20"/><title id="title2">icon</title><g id="g3713" transform="translate(28,4)"><g id="g3705"><circle id="circle4" cx="-12" cy="12" r="16" style="fill:#c2bfbc;stroke-width:.12903225"/></g><path style="fill:#333;stroke:#333;stroke-width:.38709679;stroke-linecap:round;stroke-linejoin:round" id="path6" d="m -21.23871,13.303226 c 0.51613,0 0.941936,0.4 0.941936,0.993548 a 0.9419355,0.9419355 0 1 1 -1.883871,0 c 0,-0.593548 0.412903,-0.993548 0.941935,-0.993548 z"/><path style="fill:#333;stroke:#333;stroke-width:.38709679;stroke-linecap:round;stroke-linejoin:round" id="path8" d="m -18.451613,16.76129 c 0.787097,0 1.264516,-0.516129 1.548387,-1.212903 l 0.167742,-0.412903 -2.632258,-5.651613 H -18.4 l 1.367742,3.122581 c 0.219355,0.503225 0.464516,1.096774 0.696774,1.638709 h 0.05161 l 0.606452,-1.638709 1.225806,-3.122581 h 0.903226 l -2.477419,6.103226 c -0.412903,1.109677 -1.109678,1.96129 -2.387097,1.96129 a 2.3741936,2.3741936 0 0 1 -0.748387,-0.116129 l 0.193548,-0.748387 a 1.8064516,1.8064516 0 0 0 0.516129,0.07742 z"/><path style="fill:#333;stroke:#333;stroke-width:.38709679;stroke-linecap:round;stroke-linejoin:round" id="path10" d="m -12.451613,9.483871 h 0.748387 l 0.07742,0.748387 h 0.03871 c 0.28387,-0.516129 0.632258,-0.8774193 1.264516,-0.8774193 0.6322577,0 0.9290319,0.3225807 1.0709674,0.9806453 0.3354839,-0.5935485 0.7096774,-0.9806453 1.3290323,-0.9806453 0.6193548,0 1.2258065,0.6193549 1.2258065,1.7419353 v 4.03871 H -7.6129029 V 11.16129 c 0,-0.658064 -0.1935484,-0.993548 -0.6193548,-0.993548 -0.4258065,0 -0.6709678,0.283871 -0.967742,0.864516 v 4.090323 H -9.96129 V 11.16129 c 0,-0.658064 -0.219355,-0.993548 -0.645161,-0.993548 -0.425807,0 -0.645162,0.283871 -0.941936,0.864516 v 4.090323 h -0.916129 z"/><path style="fill:#333;stroke:#333;stroke-width:.38709679;stroke-linecap:round;stroke-linejoin:round" id="path12" d="m -6.3354835,6.8516129 h 2.8774194 v 6.4387101 c 0,0.825806 0.4258065,1.174193 1.0967742,1.174193 a 2.567742,2.567742 0 0 0 1.0709678,-0.270968 l 0.2451613,0.722581 c -0.5161291,0.180645 -0.9032259,0.335484 -1.5225807,0.335484 -1.2,0 -1.8451613,-0.696774 -1.8451613,-2.025806 V 7.6387097 h -1.9225807 z"/></g></svg>